<mxfile host="65bd71144e" scale="4" border="0">
    <diagram id="nrZm4z8ueMiQctfi5eVk" name="Related Works">
        <mxGraphModel dx="1072" dy="720" grid="0" gridSize="10" guides="1" tooltips="1" connect="1" arrows="1" fold="1" page="1" pageScale="1" pageWidth="850" pageHeight="1100" math="0" shadow="0">
            <root>
                <mxCell id="0"/>
                <mxCell id="1" parent="0"/>
                <mxCell id="TfqMEHt369TmIVxjfjxj-37" value="Computer Science" style="ellipse;whiteSpace=wrap;html=1;aspect=fixed;spacingBottom=-2;" parent="1" vertex="1">
                    <mxGeometry x="550" y="310" width="70" height="70" as="geometry"/>
                </mxCell>
                <mxCell id="TfqMEHt369TmIVxjfjxj-38" value="Bard College" style="ellipse;whiteSpace=wrap;html=1;aspect=fixed;spacingBottom=-2;" parent="1" vertex="1">
                    <mxGeometry x="570" y="390" width="70" height="70" as="geometry"/>
                </mxCell>
                <mxCell id="TfqMEHt369TmIVxjfjxj-42" style="edgeStyle=none;html=1;" parent="1" source="TfqMEHt369TmIVxjfjxj-39" target="TfqMEHt369TmIVxjfjxj-38" edge="1">
                    <mxGeometry relative="1" as="geometry"/>
                </mxCell>
                <mxCell id="TfqMEHt369TmIVxjfjxj-43" value="studied at" style="edgeLabel;html=1;align=center;verticalAlign=middle;resizable=0;points=[];" parent="TfqMEHt369TmIVxjfjxj-42" vertex="1" connectable="0">
                    <mxGeometry x="0.0939" relative="1" as="geometry">
                        <mxPoint x="-9" as="offset"/>
                    </mxGeometry>
                </mxCell>
                <mxCell id="TfqMEHt369TmIVxjfjxj-46" style="edgeStyle=none;html=1;" parent="1" target="TfqMEHt369TmIVxjfjxj-37" edge="1">
                    <mxGeometry relative="1" as="geometry">
                        <mxPoint x="475" y="408" as="sourcePoint"/>
                    </mxGeometry>
                </mxCell>
                <mxCell id="TfqMEHt369TmIVxjfjxj-48" value="academic major" style="edgeLabel;html=1;align=center;verticalAlign=middle;resizable=0;points=[];" parent="TfqMEHt369TmIVxjfjxj-46" vertex="1" connectable="0">
                    <mxGeometry x="0.171" y="-1" relative="1" as="geometry">
                        <mxPoint x="-7" as="offset"/>
                    </mxGeometry>
                </mxCell>
                <mxCell id="TfqMEHt369TmIVxjfjxj-47" style="edgeStyle=none;html=1;" parent="1" source="TfqMEHt369TmIVxjfjxj-39" target="TfqMEHt369TmIVxjfjxj-40" edge="1">
                    <mxGeometry relative="1" as="geometry"/>
                </mxCell>
                <mxCell id="TfqMEHt369TmIVxjfjxj-49" value="graduated in" style="edgeLabel;html=1;align=center;verticalAlign=middle;resizable=0;points=[];" parent="TfqMEHt369TmIVxjfjxj-47" vertex="1" connectable="0">
                    <mxGeometry x="-0.0199" y="-3" relative="1" as="geometry">
                        <mxPoint as="offset"/>
                    </mxGeometry>
                </mxCell>
                <mxCell id="TfqMEHt369TmIVxjfjxj-39" value="Alex" style="ellipse;whiteSpace=wrap;html=1;aspect=fixed;spacingBottom=-2;" parent="1" vertex="1">
                    <mxGeometry x="410" y="390" width="70" height="70" as="geometry"/>
                </mxCell>
                <mxCell id="TfqMEHt369TmIVxjfjxj-40" value="2024" style="ellipse;whiteSpace=wrap;html=1;aspect=fixed;spacingBottom=-2;" parent="1" vertex="1">
                    <mxGeometry x="550" y="470" width="70" height="70" as="geometry"/>
                </mxCell>
                <mxCell id="TfqMEHt369TmIVxjfjxj-44" style="edgeStyle=none;html=1;" parent="1" source="TfqMEHt369TmIVxjfjxj-39" target="TfqMEHt369TmIVxjfjxj-41" edge="1">
                    <mxGeometry relative="1" as="geometry"/>
                </mxCell>
                <mxCell id="avHKd94ex95VngiSLyzb-1" value="place of birth" style="edgeLabel;html=1;align=center;verticalAlign=middle;resizable=0;points=[];" parent="TfqMEHt369TmIVxjfjxj-44" vertex="1" connectable="0">
                    <mxGeometry x="-0.0691" y="3" relative="1" as="geometry">
                        <mxPoint x="1" y="-3" as="offset"/>
                    </mxGeometry>
                </mxCell>
                <mxCell id="TfqMEHt369TmIVxjfjxj-41" value="New York, NY" style="ellipse;whiteSpace=wrap;html=1;aspect=fixed;spacingBottom=-4;spacingRight=-1;" parent="1" vertex="1">
                    <mxGeometry x="250" y="390" width="70" height="70" as="geometry"/>
                </mxCell>
                <mxCell id="zOv1Cio5wqH_XqgLsVpN-1" value="Bard College" style="ellipse;whiteSpace=wrap;html=1;aspect=fixed;spacingBottom=-2;" parent="1" vertex="1">
                    <mxGeometry x="410" y="600" width="70" height="70" as="geometry"/>
                </mxCell>
                <mxCell id="zOv1Cio5wqH_XqgLsVpN-2" style="edgeStyle=none;html=1;" parent="1" source="zOv1Cio5wqH_XqgLsVpN-4" target="zOv1Cio5wqH_XqgLsVpN-1" edge="1">
                    <mxGeometry relative="1" as="geometry"/>
                </mxCell>
                <mxCell id="zOv1Cio5wqH_XqgLsVpN-3" value="studied at" style="edgeLabel;html=1;align=center;verticalAlign=middle;resizable=0;points=[];" parent="zOv1Cio5wqH_XqgLsVpN-2" vertex="1" connectable="0">
                    <mxGeometry x="0.0939" relative="1" as="geometry">
                        <mxPoint x="-9" as="offset"/>
                    </mxGeometry>
                </mxCell>
                <mxCell id="zOv1Cio5wqH_XqgLsVpN-4" value="Alex" style="ellipse;whiteSpace=wrap;html=1;aspect=fixed;spacingBottom=-2;" parent="1" vertex="1">
                    <mxGeometry x="250" y="600" width="70" height="70" as="geometry"/>
                </mxCell>
            </root>
        </mxGraphModel>
    </diagram>
    <diagram id="eBM8X4_kObECRYnpffsh" name="Implementation">
        <mxGraphModel dx="2637" dy="1200" grid="1" gridSize="10" guides="1" tooltips="1" connect="1" arrows="1" fold="1" page="1" pageScale="1" pageWidth="850" pageHeight="1100" background="none" math="0" shadow="0">
            <root>
                <mxCell id="0"/>
                <mxCell id="1" parent="0"/>
                <mxCell id="bXUwZt-eejmS2oAzGcIJ-269" value="&amp;nbsp;Browser Extension" style="shape=umlFrame;whiteSpace=wrap;html=1;width=110;height=20;boundedLbl=1;verticalAlign=middle;align=center;spacingLeft=0;strokeColor=#6c8ebf;fontSize=10;spacingTop=0;fontStyle=1;movable=1;resizable=1;rotatable=1;deletable=1;editable=1;connectable=1;flipH=1;fillColor=#dae8fc;spacingRight=-6;" parent="1" vertex="1">
                    <mxGeometry x="-440" y="100" width="380" height="560" as="geometry"/>
                </mxCell>
                <mxCell id="bXUwZt-eejmS2oAzGcIJ-268" value="API Server" style="shape=umlFrame;whiteSpace=wrap;html=1;width=75;height=19;boundedLbl=1;verticalAlign=middle;align=center;spacingLeft=0;strokeColor=#82b366;fontSize=10;spacingTop=0;fontStyle=1;movable=1;resizable=1;rotatable=1;deletable=1;editable=1;connectable=1;flipH=1;fillColor=#d5e8d4;spacingRight=-6;swimlaneFillColor=none;" parent="1" vertex="1">
                    <mxGeometry x="-310" y="200" width="230" height="450" as="geometry"/>
                </mxCell>
                <mxCell id="48" value="" style="endArrow=none;html=1;dashed=1;dashPattern=8 8;entryX=0.5;entryY=1;entryDx=0;entryDy=0;" parent="1" target="19" edge="1">
                    <mxGeometry width="50" height="50" relative="1" as="geometry">
                        <mxPoint x="195" y="1050" as="sourcePoint"/>
                        <mxPoint x="210" y="798" as="targetPoint"/>
                    </mxGeometry>
                </mxCell>
                <mxCell id="50" value="" style="endArrow=none;html=1;dashed=1;dashPattern=8 8;entryX=0.5;entryY=1;entryDx=0;entryDy=0;startArrow=none;" parent="1" target="20" edge="1">
                    <mxGeometry width="50" height="50" relative="1" as="geometry">
                        <mxPoint x="275" y="1050" as="sourcePoint"/>
                        <mxPoint x="275" y="796" as="targetPoint"/>
                    </mxGeometry>
                </mxCell>
                <mxCell id="65" value="" style="endArrow=none;html=1;dashed=1;dashPattern=8 8;entryX=0.5;entryY=1;entryDx=0;entryDy=0;" parent="1" target="64" edge="1">
                    <mxGeometry width="50" height="50" relative="1" as="geometry">
                        <mxPoint x="635" y="1050" as="sourcePoint"/>
                        <mxPoint x="635" y="796" as="targetPoint"/>
                    </mxGeometry>
                </mxCell>
                <mxCell id="34" value="" style="endArrow=none;html=1;dashed=1;dashPattern=8 8;" parent="1" edge="1">
                    <mxGeometry width="50" height="50" relative="1" as="geometry">
                        <mxPoint x="105" y="120" as="sourcePoint"/>
                        <mxPoint x="105" y="1050" as="targetPoint"/>
                    </mxGeometry>
                </mxCell>
                <mxCell id="52" value="" style="endArrow=none;html=1;dashed=1;dashPattern=8 8;entryX=0.5;entryY=1;entryDx=0;entryDy=0;startArrow=none;" parent="1" target="21" edge="1">
                    <mxGeometry width="50" height="50" relative="1" as="geometry">
                        <mxPoint x="355" y="1050" as="sourcePoint"/>
                        <mxPoint x="355" y="796" as="targetPoint"/>
                    </mxGeometry>
                </mxCell>
                <mxCell id="54" value="" style="endArrow=none;html=1;dashed=1;dashPattern=8 8;entryX=0.5;entryY=1;entryDx=0;entryDy=0;" parent="1" target="22" edge="1">
                    <mxGeometry width="50" height="50" relative="1" as="geometry">
                        <mxPoint x="455" y="1050" as="sourcePoint"/>
                        <mxPoint x="455" y="796" as="targetPoint"/>
                    </mxGeometry>
                </mxCell>
                <mxCell id="56" value="" style="endArrow=none;html=1;dashed=1;dashPattern=8 8;entryX=0.5;entryY=1;entryDx=0;entryDy=0;" parent="1" target="23" edge="1">
                    <mxGeometry width="50" height="50" relative="1" as="geometry">
                        <mxPoint x="535" y="1050" as="sourcePoint"/>
                        <mxPoint x="535" y="796" as="targetPoint"/>
                    </mxGeometry>
                </mxCell>
                <mxCell id="49" value="sidepanel/index.tsx" style="rounded=0;strokeColor=#000000;fillColor=#f5f5f5;fontColor=#B3B3B3;labelBackgroundColor=#FFFFFF;labelBorderColor=none;spacingLeft=2;html=1;fontSize=9;fontFamily=Roboto Mono;fontSource=https%3A%2F%2Ffonts.googleapis.com%2Fcss%3Ffamily%3DRoboto%2BMono;verticalAlign=bottom;spacingTop=0;labelPosition=right;verticalLabelPosition=top;align=left;spacingBottom=-10;spacingRight=2;" parent="1" vertex="1">
                    <mxGeometry x="190" y="160" width="10" height="870" as="geometry"/>
                </mxCell>
                <mxCell id="141" value="loop" style="shape=umlFrame;whiteSpace=wrap;html=1;width=50;height=20;boundedLbl=1;verticalAlign=middle;align=center;spacingLeft=-4;strokeColor=#000000;fontSize=10;spacingTop=-1;fontStyle=1;movable=1;resizable=1;rotatable=1;deletable=1;editable=1;connectable=1;" parent="1" vertex="1">
                    <mxGeometry x="130" y="173" width="620" height="847" as="geometry"/>
                </mxCell>
                <mxCell id="3" value="User" style="shape=umlActor;verticalLabelPosition=top;verticalAlign=bottom;html=1;labelPosition=center;align=center;fontSize=10;spacingBottom=12;fontStyle=1" parent="1" vertex="1">
                    <mxGeometry x="95" y="80" width="20" height="40" as="geometry"/>
                </mxCell>
                <mxCell id="19" value="&lt;p style=&quot;line-height: 100%;&quot;&gt;&lt;font style=&quot;font-size: 10px;&quot;&gt;User &lt;br&gt;Interface&lt;/font&gt;&lt;/p&gt;" style="rounded=0;whiteSpace=wrap;html=1;strokeColor=default;" parent="1" vertex="1">
                    <mxGeometry x="160" y="80" width="70" height="40" as="geometry"/>
                </mxCell>
                <mxCell id="20" value="&lt;p style=&quot;line-height: 100%;&quot;&gt;&lt;font style=&quot;font-size: 10px;&quot;&gt;Background Workers&lt;/font&gt;&lt;/p&gt;" style="rounded=0;whiteSpace=wrap;html=1;strokeColor=default;" parent="1" vertex="1">
                    <mxGeometry x="240" y="80" width="70" height="40" as="geometry"/>
                </mxCell>
                <mxCell id="21" value="&lt;p style=&quot;line-height: 100%;&quot;&gt;&lt;font style=&quot;font-size: 10px;&quot;&gt;Content Scripts&lt;/font&gt;&lt;/p&gt;" style="rounded=0;whiteSpace=wrap;html=1;strokeColor=default;" parent="1" vertex="1">
                    <mxGeometry x="320" y="80" width="70" height="40" as="geometry"/>
                </mxCell>
                <mxCell id="22" value="&lt;p style=&quot;line-height: 100%;&quot;&gt;&lt;font style=&quot;font-size: 10px;&quot;&gt;Route &lt;br&gt;Handler&lt;/font&gt;&lt;/p&gt;" style="rounded=0;whiteSpace=wrap;html=1;strokeColor=default;" parent="1" vertex="1">
                    <mxGeometry x="420" y="80" width="70" height="40" as="geometry"/>
                </mxCell>
                <mxCell id="23" value="&lt;p style=&quot;line-height: 100%;&quot;&gt;&lt;font style=&quot;font-size: 10px;&quot;&gt;Modules&lt;/font&gt;&lt;/p&gt;" style="rounded=0;whiteSpace=wrap;html=1;strokeColor=default;" parent="1" vertex="1">
                    <mxGeometry x="500" y="80" width="70" height="40" as="geometry"/>
                </mxCell>
                <mxCell id="33" value="" style="rounded=0;whiteSpace=wrap;html=1;fillColor=#f5f5f5;fontColor=#333333;strokeColor=#000000;" parent="1" vertex="1">
                    <mxGeometry x="100" y="140" width="10" height="890" as="geometry"/>
                </mxCell>
                <mxCell id="35" value="click &quot;Locate&quot;" style="endArrow=block;html=1;endFill=1;entryX=0;entryY=0;entryDx=0;entryDy=0;fontSize=10;" parent="1" target="49" edge="1">
                    <mxGeometry y="10" width="50" height="50" relative="1" as="geometry">
                        <mxPoint x="110" y="160" as="sourcePoint"/>
                        <mxPoint x="230" y="160" as="targetPoint"/>
                        <mxPoint as="offset"/>
                    </mxGeometry>
                </mxCell>
                <mxCell id="59" value="&lt;font style=&quot;font-size: 9px;&quot; data-font-src=&quot;https://fonts.googleapis.com/css?family=Roboto+Mono&quot; face=&quot;Roboto Mono&quot;&gt;process(RequestBody)&lt;/font&gt;" style="endArrow=block;html=1;endFill=1;entryX=0;entryY=0;entryDx=0;entryDy=0;fontSize=9;labelBackgroundColor=default;" parent="1" target="68" edge="1">
                    <mxGeometry x="0.7143" y="10" width="50" height="50" relative="1" as="geometry">
                        <mxPoint x="200" y="210" as="sourcePoint"/>
                        <mxPoint x="350" y="210.00000000000864" as="targetPoint"/>
                        <mxPoint as="offset"/>
                    </mxGeometry>
                </mxCell>
                <mxCell id="64" value="&lt;p style=&quot;line-height: 100%;&quot;&gt;API SDK&lt;/p&gt;" style="rounded=0;whiteSpace=wrap;html=1;strokeColor=default;fontSize=10;" parent="1" vertex="1">
                    <mxGeometry x="600" y="80" width="70" height="40" as="geometry"/>
                </mxCell>
                <mxCell id="70" value="&lt;font style=&quot;font-size: 9px;&quot; data-font-src=&quot;https://fonts.googleapis.com/css?family=Roboto+Mono&quot; face=&quot;Roboto Mono&quot;&gt;process(RequestBody)&lt;/font&gt;" style="endArrow=block;html=1;endFill=1;entryX=0;entryY=0;entryDx=0;entryDy=0;fontSize=9;" parent="1" edge="1">
                    <mxGeometry x="0.6471" y="10" width="50" height="50" relative="1" as="geometry">
                        <mxPoint x="280" y="270" as="sourcePoint"/>
                        <mxPoint x="450" y="270.000000000005" as="targetPoint"/>
                        <mxPoint as="offset"/>
                    </mxGeometry>
                </mxCell>
                <mxCell id="71" value="app.py" style="rounded=0;strokeColor=#000000;fillColor=#f5f5f5;fontColor=#B3B3B3;labelBackgroundColor=default;labelBorderColor=none;spacingLeft=2;html=1;fontSize=9;fontFamily=Roboto Mono;fontSource=https%3A%2F%2Ffonts.googleapis.com%2Fcss%3Ffamily%3DRoboto%2BMono;verticalAlign=bottom;spacingTop=0;labelPosition=right;verticalLabelPosition=top;align=left;spacingBottom=-10;spacingRight=2;" parent="1" vertex="1">
                    <mxGeometry x="450" y="270" width="10" height="620" as="geometry"/>
                </mxCell>
                <mxCell id="72" value="parse.py" style="rounded=0;strokeColor=#000000;fillColor=#f5f5f5;fontColor=#B3B3B3;labelBackgroundColor=default;labelBorderColor=none;spacingLeft=2;html=1;fontSize=9;fontFamily=Roboto Mono;fontSource=https%3A%2F%2Ffonts.googleapis.com%2Fcss%3Ffamily%3DRoboto%2BMono;verticalAlign=bottom;spacingTop=0;labelPosition=right;verticalLabelPosition=top;align=left;spacingBottom=-10;spacingRight=2;" parent="1" vertex="1">
                    <mxGeometry x="530" y="300" width="10" height="20" as="geometry"/>
                </mxCell>
                <mxCell id="73" value="&lt;font style=&quot;font-size: 9px;&quot; data-font-src=&quot;https://fonts.googleapis.com/css?family=Roboto+Mono&quot; face=&quot;Roboto Mono&quot;&gt;parse(WebpageData)&lt;/font&gt;" style="endArrow=block;html=1;endFill=1;fontSize=9;entryX=0;entryY=0;entryDx=0;entryDy=0;" parent="1" target="72" edge="1">
                    <mxGeometry x="0.6" y="10" width="50" height="50" relative="1" as="geometry">
                        <mxPoint x="460" y="300" as="sourcePoint"/>
                        <mxPoint x="570" y="300" as="targetPoint"/>
                        <mxPoint as="offset"/>
                    </mxGeometry>
                </mxCell>
                <mxCell id="74" value="&lt;font style=&quot;font-size: 9px;&quot; data-font-src=&quot;https://fonts.googleapis.com/css?family=Roboto+Mono&quot; face=&quot;Roboto Mono&quot;&gt;ParsedWebpageData&lt;/font&gt;" style="endArrow=open;html=1;endFill=0;fontSize=9;exitX=0;exitY=1;exitDx=0;exitDy=0;" parent="1" edge="1">
                    <mxGeometry x="0.4286" y="-10" width="50" height="50" relative="1" as="geometry">
                        <mxPoint x="530" y="320" as="sourcePoint"/>
                        <mxPoint x="460" y="320" as="targetPoint"/>
                        <mxPoint as="offset"/>
                    </mxGeometry>
                </mxCell>
                <mxCell id="76" value="filter.py" style="rounded=0;strokeColor=#000000;fillColor=#f5f5f5;fontColor=#B3B3B3;labelBackgroundColor=default;labelBorderColor=none;spacingLeft=2;html=1;fontSize=9;fontFamily=Roboto Mono;fontSource=https%3A%2F%2Ffonts.googleapis.com%2Fcss%3Ffamily%3DRoboto%2BMono;verticalAlign=bottom;spacingTop=0;labelPosition=right;verticalLabelPosition=top;align=left;spacingBottom=-10;spacingRight=2;" parent="1" vertex="1">
                    <mxGeometry x="530" y="340" width="10" height="30" as="geometry"/>
                </mxCell>
                <mxCell id="77" value="&lt;font style=&quot;font-size: 9px;&quot; data-font-src=&quot;https://fonts.googleapis.com/css?family=Roboto+Mono&quot; face=&quot;Roboto Mono&quot;&gt;filter(ParsedWebpageData, Query)&lt;/font&gt;" style="endArrow=block;html=1;endFill=1;fontSize=9;entryX=0;entryY=0;entryDx=0;entryDy=0;" parent="1" target="76" edge="1">
                    <mxGeometry x="1" y="25" width="50" height="50" relative="1" as="geometry">
                        <mxPoint x="460" y="340" as="sourcePoint"/>
                        <mxPoint x="570" y="340" as="targetPoint"/>
                        <mxPoint x="23" y="15" as="offset"/>
                    </mxGeometry>
                </mxCell>
                <mxCell id="78" value="&lt;font style=&quot;font-size: 9px;&quot; data-font-src=&quot;https://fonts.googleapis.com/css?family=Roboto+Mono&quot; face=&quot;Roboto Mono&quot;&gt;Element[], ActionElement[]&lt;/font&gt;" style="endArrow=open;html=1;endFill=0;fontSize=9;exitX=0;exitY=1;exitDx=0;exitDy=0;" parent="1" edge="1">
                    <mxGeometry x="1" y="-11" width="50" height="50" relative="1" as="geometry">
                        <mxPoint x="530" y="370" as="sourcePoint"/>
                        <mxPoint x="460" y="369.9999999999999" as="targetPoint"/>
                        <mxPoint x="-5" y="1" as="offset"/>
                    </mxGeometry>
                </mxCell>
                <mxCell id="58" value="opt" style="shape=umlFrame;whiteSpace=wrap;html=1;width=50;height=20;boundedLbl=1;verticalAlign=middle;align=center;spacingLeft=-4;strokeColor=#000000;fontSize=10;spacingTop=-2;fontStyle=1;movable=1;resizable=1;rotatable=1;deletable=1;editable=1;connectable=1;" parent="1" vertex="1">
                    <mxGeometry x="390" y="380" width="350" height="220" as="geometry"/>
                </mxCell>
                <mxCell id="79" value="&lt;span style=&quot;color: rgb(0, 0, 0); font-family: &amp;quot;Roboto Mono&amp;quot;; font-size: 9px; font-style: normal; font-variant-ligatures: normal; font-variant-caps: normal; letter-spacing: normal; orphans: 2; text-align: center; text-indent: 0px; text-transform: none; widows: 2; word-spacing: 0px; -webkit-text-stroke-width: 0px; background-color: rgb(255, 255, 255); text-decoration-thickness: initial; text-decoration-style: initial; text-decoration-color: initial; float: none; display: inline !important;&quot;&gt;[len(Element[]) &amp;gt; 0]&lt;/span&gt;" style="text;whiteSpace=wrap;html=1;fontSize=9;fontFamily=Roboto Mono;fontColor=#B3B3B3;verticalAlign=middle;fontStyle=1;" parent="1" vertex="1">
                    <mxGeometry x="462" y="380" width="130" height="20" as="geometry"/>
                </mxCell>
                <mxCell id="80" value="extract.py" style="rounded=0;strokeColor=#000000;fillColor=#f5f5f5;fontColor=#B3B3B3;labelBackgroundColor=default;labelBorderColor=none;spacingLeft=2;html=1;fontSize=9;fontFamily=Roboto Mono;fontSource=https%3A%2F%2Ffonts.googleapis.com%2Fcss%3Ffamily%3DRoboto%2BMono;verticalAlign=bottom;spacingTop=0;labelPosition=right;verticalLabelPosition=top;align=left;spacingBottom=-10;spacingRight=2;" parent="1" vertex="1">
                    <mxGeometry x="530" y="420" width="10" height="170" as="geometry"/>
                </mxCell>
                <mxCell id="81" value="&lt;font style=&quot;font-size: 9px;&quot; data-font-src=&quot;https://fonts.googleapis.com/css?family=Roboto+Mono&quot; face=&quot;Roboto Mono&quot;&gt;extract(Element[], Query)&lt;/font&gt;" style="endArrow=block;html=1;endFill=1;fontSize=9;entryX=0;entryY=0;entryDx=0;entryDy=0;" parent="1" target="80" edge="1">
                    <mxGeometry x="1" y="12" width="50" height="50" relative="1" as="geometry">
                        <mxPoint x="460" y="420" as="sourcePoint"/>
                        <mxPoint x="530" y="420" as="targetPoint"/>
                        <mxPoint x="6" y="2" as="offset"/>
                    </mxGeometry>
                </mxCell>
                <mxCell id="82" value="models/app.py" style="rounded=0;strokeColor=#000000;fillColor=#f5f5f5;fontColor=#B3B3B3;labelBackgroundColor=default;labelBorderColor=none;spacingLeft=2;html=1;fontSize=9;fontFamily=Roboto Mono;fontSource=https%3A%2F%2Ffonts.googleapis.com%2Fcss%3Ffamily%3DRoboto%2BMono;verticalAlign=bottom;spacingTop=0;labelPosition=right;verticalLabelPosition=top;align=left;spacingBottom=-10;spacingRight=2;" parent="1" vertex="1">
                    <mxGeometry x="630" y="460" width="10" height="20" as="geometry"/>
                </mxCell>
                <mxCell id="83" value="&lt;font style=&quot;font-size: 9px;&quot; data-font-src=&quot;https://fonts.googleapis.com/css?family=Roboto+Mono&quot; face=&quot;Roboto Mono&quot;&gt;extract_mrebel(Element[])&lt;/font&gt;" style="endArrow=block;html=1;endFill=1;fontSize=9;entryX=1;entryY=0;entryDx=0;entryDy=0;rounded=0;align=left;" parent="1" edge="1">
                    <mxGeometry x="0.0462" y="7" width="50" height="50" relative="1" as="geometry">
                        <mxPoint x="540" y="430" as="sourcePoint"/>
                        <mxPoint x="545" y="440" as="targetPoint"/>
                        <mxPoint as="offset"/>
                        <Array as="points">
                            <mxPoint x="570" y="430"/>
                            <mxPoint x="570" y="440"/>
                        </Array>
                    </mxGeometry>
                </mxCell>
                <mxCell id="84" value="&lt;font style=&quot;font-size: 9px;&quot; data-font-src=&quot;https://fonts.googleapis.com/css?family=Roboto+Mono&quot; face=&quot;Roboto Mono&quot;&gt;Relation[]&lt;/font&gt;" style="endArrow=open;html=1;endFill=0;dashed=1;fontSize=9;entryX=1;entryY=1;entryDx=0;entryDy=0;exitX=0;exitY=1;exitDx=0;exitDy=0;" parent="1" edge="1">
                    <mxGeometry x="-0.0909" y="-10" width="50" height="50" relative="1" as="geometry">
                        <mxPoint x="630" y="480" as="sourcePoint"/>
                        <mxPoint x="545" y="480" as="targetPoint"/>
                        <mxPoint as="offset"/>
                    </mxGeometry>
                </mxCell>
                <mxCell id="85" value="LLM API" style="rounded=0;strokeColor=#000000;fillColor=#f5f5f5;fontColor=#B3B3B3;labelBackgroundColor=default;labelBorderColor=none;spacingLeft=2;html=1;fontSize=9;fontFamily=Roboto Mono;fontSource=https%3A%2F%2Ffonts.googleapis.com%2Fcss%3Ffamily%3DRoboto%2BMono;verticalAlign=bottom;spacingTop=0;labelPosition=right;verticalLabelPosition=top;align=left;spacingBottom=-12;spacingRight=2;fontStyle=2;" parent="1" vertex="1">
                    <mxGeometry x="630" y="540" width="10" height="20" as="geometry"/>
                </mxCell>
                <mxCell id="86" value="&lt;font face=&quot;Roboto Mono&quot;&gt;&lt;i&gt;litellm&lt;/i&gt;.completion(prompt)&lt;/font&gt;" style="endArrow=block;html=1;endFill=1;fontSize=9;entryX=0;entryY=0;entryDx=0;entryDy=0;" parent="1" target="85" edge="1">
                    <mxGeometry x="1" y="10" width="50" height="50" relative="1" as="geometry">
                        <mxPoint x="540" y="540" as="sourcePoint"/>
                        <mxPoint x="620" y="540" as="targetPoint"/>
                        <mxPoint as="offset"/>
                    </mxGeometry>
                </mxCell>
                <mxCell id="87" value="&lt;font style=&quot;font-size: 9px;&quot; data-font-src=&quot;https://fonts.googleapis.com/css?family=Roboto+Mono&quot; face=&quot;Roboto Mono&quot;&gt;response&lt;/font&gt;" style="endArrow=open;html=1;endFill=0;dashed=1;fontSize=9;exitX=0;exitY=1;exitDx=0;exitDy=0;" parent="1" edge="1">
                    <mxGeometry x="-0.0895" y="-10" width="50" height="50" relative="1" as="geometry">
                        <mxPoint x="630" y="560" as="sourcePoint"/>
                        <mxPoint x="545" y="560" as="targetPoint"/>
                        <mxPoint as="offset"/>
                    </mxGeometry>
                </mxCell>
                <mxCell id="88" value="&lt;font style=&quot;font-size: 9px;&quot; data-font-src=&quot;https://fonts.googleapis.com/css?family=Roboto+Mono&quot; face=&quot;Roboto Mono&quot;&gt;Relation[]&lt;/font&gt;" style="endArrow=open;html=1;endFill=0;fontSize=9;" parent="1" edge="1">
                    <mxGeometry x="-0.0571" y="-11" width="50" height="50" relative="1" as="geometry">
                        <mxPoint x="530" y="590" as="sourcePoint"/>
                        <mxPoint x="460" y="590" as="targetPoint"/>
                        <mxPoint as="offset"/>
                    </mxGeometry>
                </mxCell>
                <mxCell id="89" value="opt" style="shape=umlFrame;whiteSpace=wrap;html=1;width=50;height=20;boundedLbl=1;verticalAlign=middle;align=center;spacingLeft=-4;strokeColor=#000000;fontSize=10;spacingTop=-2;fontStyle=1;" parent="1" vertex="1">
                    <mxGeometry x="390" y="610" width="350" height="130" as="geometry"/>
                </mxCell>
                <mxCell id="90" value="&lt;span style=&quot;color: rgb(0, 0, 0); font-family: &amp;quot;Roboto Mono&amp;quot;; font-size: 9px; font-style: normal; font-variant-ligatures: normal; font-variant-caps: normal; letter-spacing: normal; orphans: 2; text-align: center; text-indent: 0px; text-transform: none; widows: 2; word-spacing: 0px; -webkit-text-stroke-width: 0px; background-color: rgb(255, 255, 255); text-decoration-thickness: initial; text-decoration-style: initial; text-decoration-color: initial; float: none; display: inline !important;&quot;&gt;[len(Relation[]) &amp;gt; 0]&lt;/span&gt;" style="text;whiteSpace=wrap;html=1;fontSize=9;fontFamily=Roboto Mono;fontColor=#B3B3B3;verticalAlign=middle;fontStyle=1;" parent="1" vertex="1">
                    <mxGeometry x="462" y="610" width="130" height="20" as="geometry"/>
                </mxCell>
                <mxCell id="91" value="evaluate.py" style="rounded=0;strokeColor=#000000;fillColor=#f5f5f5;fontColor=#B3B3B3;labelBackgroundColor=default;labelBorderColor=none;spacingLeft=2;html=1;fontSize=9;fontFamily=Roboto Mono;fontSource=https%3A%2F%2Ffonts.googleapis.com%2Fcss%3Ffamily%3DRoboto%2BMono;verticalAlign=bottom;spacingTop=0;labelPosition=right;verticalLabelPosition=top;align=left;spacingBottom=-10;spacingRight=2;" parent="1" vertex="1">
                    <mxGeometry x="530" y="650" width="10" height="80" as="geometry"/>
                </mxCell>
                <mxCell id="92" value="&lt;font style=&quot;font-size: 9px;&quot; data-font-src=&quot;https://fonts.googleapis.com/css?family=Roboto+Mono&quot; face=&quot;Roboto Mono&quot;&gt;evaluate(Relation[], Query)&lt;/font&gt;" style="endArrow=block;html=1;endFill=1;fontSize=9;" parent="1" edge="1">
                    <mxGeometry x="1" y="14" width="50" height="50" relative="1" as="geometry">
                        <mxPoint x="460" y="650" as="sourcePoint"/>
                        <mxPoint x="530" y="650" as="targetPoint"/>
                        <mxPoint x="10" y="4" as="offset"/>
                    </mxGeometry>
                </mxCell>
                <mxCell id="99" value="&lt;font style=&quot;font-size: 9px;&quot; data-font-src=&quot;https://fonts.googleapis.com/css?family=Roboto+Mono&quot; face=&quot;Roboto Mono&quot;&gt;&lt;i&gt;requests&lt;/i&gt;.post(contents)&lt;/font&gt;" style="endArrow=block;html=1;endFill=1;fontSize=9;entryX=0;entryY=0;entryDx=0;entryDy=0;" parent="1" target="82" edge="1">
                    <mxGeometry x="0.7647" y="10" width="50" height="50" relative="1" as="geometry">
                        <mxPoint x="545.0000000000002" y="460" as="sourcePoint"/>
                        <mxPoint x="655.0000000000002" y="460" as="targetPoint"/>
                        <mxPoint as="offset"/>
                    </mxGeometry>
                </mxCell>
                <mxCell id="100" value="" style="rounded=0;labelBackgroundColor=default;labelBorderColor=none;spacingLeft=0;html=1;fontSize=9;fontFamily=Roboto Mono;fontSource=https%3A%2F%2Ffonts.googleapis.com%2Fcss%3Ffamily%3DRoboto%2BMono;verticalAlign=top;spacingTop=1;labelPosition=center;verticalLabelPosition=middle;align=center;" parent="1" vertex="1">
                    <mxGeometry x="535" y="440" width="10" height="50" as="geometry"/>
                </mxCell>
                <mxCell id="101" value="&lt;font style=&quot;font-size: 9px;&quot; data-font-src=&quot;https://fonts.googleapis.com/css?family=Roboto+Mono&quot; face=&quot;Roboto Mono&quot;&gt;Relation[]&lt;/font&gt;" style="endArrow=open;html=1;endFill=0;dashed=1;fontSize=9;entryX=1;entryY=1;entryDx=0;entryDy=0;exitX=1;exitY=1;exitDx=0;exitDy=0;rounded=0;align=left;" parent="1" edge="1">
                    <mxGeometry x="-0.1077" y="7" width="50" height="50" relative="1" as="geometry">
                        <mxPoint x="545" y="490" as="sourcePoint"/>
                        <mxPoint x="540" y="500" as="targetPoint"/>
                        <mxPoint as="offset"/>
                        <Array as="points">
                            <mxPoint x="570" y="490"/>
                            <mxPoint x="570" y="500"/>
                        </Array>
                    </mxGeometry>
                </mxCell>
                <mxCell id="103" value="" style="rounded=0;labelBackgroundColor=default;labelBorderColor=none;spacingLeft=0;html=1;fontSize=9;fontFamily=Roboto Mono;fontSource=https%3A%2F%2Ffonts.googleapis.com%2Fcss%3Ffamily%3DRoboto%2BMono;verticalAlign=top;spacingTop=1;labelPosition=center;verticalLabelPosition=middle;align=center;" parent="1" vertex="1">
                    <mxGeometry x="535" y="520" width="10" height="50" as="geometry"/>
                </mxCell>
                <mxCell id="104" value="&lt;span style=&quot;font-family: &amp;quot;Roboto Mono&amp;quot;; text-align: center;&quot;&gt;extract_llm(Element[], Query)&lt;/span&gt;" style="endArrow=block;html=1;endFill=1;fontSize=9;entryX=1;entryY=0;entryDx=0;entryDy=0;rounded=0;align=left;" parent="1" edge="1">
                    <mxGeometry x="0.0513" y="7" width="50" height="50" relative="1" as="geometry">
                        <mxPoint x="540" y="510" as="sourcePoint"/>
                        <mxPoint x="545" y="520" as="targetPoint"/>
                        <mxPoint as="offset"/>
                        <Array as="points">
                            <mxPoint x="570" y="510"/>
                            <mxPoint x="570" y="520"/>
                        </Array>
                    </mxGeometry>
                </mxCell>
                <mxCell id="105" value="&lt;font style=&quot;font-size: 9px;&quot; data-font-src=&quot;https://fonts.googleapis.com/css?family=Roboto+Mono&quot; face=&quot;Roboto Mono&quot;&gt;Relation[]&lt;/font&gt;" style="endArrow=open;html=1;endFill=0;dashed=1;fontSize=9;entryX=1;entryY=1;entryDx=0;entryDy=0;exitX=1;exitY=1;exitDx=0;exitDy=0;rounded=0;align=left;" parent="1" edge="1">
                    <mxGeometry x="-0.1077" y="7" width="50" height="50" relative="1" as="geometry">
                        <mxPoint x="545" y="570" as="sourcePoint"/>
                        <mxPoint x="540" y="580" as="targetPoint"/>
                        <mxPoint as="offset"/>
                        <Array as="points">
                            <mxPoint x="570" y="570"/>
                            <mxPoint x="570" y="580"/>
                        </Array>
                    </mxGeometry>
                </mxCell>
                <mxCell id="106" value="LLM API" style="rounded=0;strokeColor=#000000;fillColor=#f5f5f5;fontColor=#B3B3B3;labelBackgroundColor=default;labelBorderColor=none;spacingLeft=2;html=1;fontSize=9;fontFamily=Roboto Mono;fontSource=https%3A%2F%2Ffonts.googleapis.com%2Fcss%3Ffamily%3DRoboto%2BMono;verticalAlign=bottom;spacingTop=0;labelPosition=right;verticalLabelPosition=top;align=left;spacingBottom=-12;spacingRight=2;fontStyle=2;" parent="1" vertex="1">
                    <mxGeometry x="630" y="680" width="10" height="20" as="geometry"/>
                </mxCell>
                <mxCell id="107" value="&lt;font face=&quot;Roboto Mono&quot;&gt;&lt;i&gt;litellm&lt;/i&gt;.completion(prompt)&lt;/font&gt;" style="endArrow=block;html=1;endFill=1;fontSize=9;entryX=0;entryY=0;entryDx=0;entryDy=0;" parent="1" target="106" edge="1">
                    <mxGeometry x="1" y="10" width="50" height="50" relative="1" as="geometry">
                        <mxPoint x="540" y="680" as="sourcePoint"/>
                        <mxPoint x="620" y="680" as="targetPoint"/>
                        <mxPoint as="offset"/>
                    </mxGeometry>
                </mxCell>
                <mxCell id="108" value="&lt;font style=&quot;font-size: 9px;&quot; data-font-src=&quot;https://fonts.googleapis.com/css?family=Roboto+Mono&quot; face=&quot;Roboto Mono&quot;&gt;response&lt;/font&gt;" style="endArrow=open;html=1;endFill=0;dashed=1;fontSize=9;exitX=0;exitY=1;exitDx=0;exitDy=0;" parent="1" edge="1">
                    <mxGeometry x="-0.0588" y="-10" width="50" height="50" relative="1" as="geometry">
                        <mxPoint x="630" y="700" as="sourcePoint"/>
                        <mxPoint x="545" y="700" as="targetPoint"/>
                        <mxPoint as="offset"/>
                    </mxGeometry>
                </mxCell>
                <mxCell id="109" value="" style="rounded=0;labelBackgroundColor=default;labelBorderColor=none;spacingLeft=0;html=1;fontSize=9;fontFamily=Roboto Mono;fontSource=https%3A%2F%2Ffonts.googleapis.com%2Fcss%3Ffamily%3DRoboto%2BMono;verticalAlign=top;spacingTop=1;labelPosition=center;verticalLabelPosition=middle;align=center;" parent="1" vertex="1">
                    <mxGeometry x="535" y="670" width="10" height="40" as="geometry"/>
                </mxCell>
                <mxCell id="110" value="&lt;font style=&quot;font-size: 9px;&quot; data-font-src=&quot;https://fonts.googleapis.com/css?family=Roboto+Mono&quot; face=&quot;Roboto Mono&quot;&gt;completed, Relation[]&lt;/font&gt;" style="endArrow=open;html=1;endFill=0;dashed=1;fontSize=9;entryX=1;entryY=1;entryDx=0;entryDy=0;exitX=1;exitY=1;exitDx=0;exitDy=0;rounded=0;align=left;" parent="1" edge="1">
                    <mxGeometry x="-0.1093" y="7" width="50" height="50" relative="1" as="geometry">
                        <mxPoint x="545" y="710" as="sourcePoint"/>
                        <mxPoint x="540" y="720" as="targetPoint"/>
                        <mxPoint as="offset"/>
                        <Array as="points">
                            <mxPoint x="570" y="710"/>
                            <mxPoint x="570" y="720"/>
                        </Array>
                    </mxGeometry>
                </mxCell>
                <mxCell id="111" value="&lt;span style=&quot;font-family: &amp;quot;Roboto Mono&amp;quot;; text-align: left;&quot;&gt;completed, Relation[]&lt;/span&gt;" style="endArrow=open;html=1;endFill=0;fontSize=9;" parent="1" edge="1">
                    <mxGeometry x="0.7143" y="-10" width="50" height="50" relative="1" as="geometry">
                        <mxPoint x="530" y="730" as="sourcePoint"/>
                        <mxPoint x="460" y="730" as="targetPoint"/>
                        <mxPoint as="offset"/>
                    </mxGeometry>
                </mxCell>
                <mxCell id="112" value="opt" style="shape=umlFrame;whiteSpace=wrap;html=1;width=50;height=20;boundedLbl=1;verticalAlign=middle;align=center;spacingLeft=-4;strokeColor=#000000;fontSize=10;spacingTop=-2;fontStyle=1;" parent="1" vertex="1">
                    <mxGeometry x="390" y="750" width="350" height="130" as="geometry"/>
                </mxCell>
                <mxCell id="113" value="&lt;span style=&quot;color: rgb(0, 0, 0); font-family: &amp;quot;Roboto Mono&amp;quot;; font-size: 9px; font-style: normal; font-variant-ligatures: normal; font-variant-caps: normal; letter-spacing: normal; orphans: 2; text-align: center; text-indent: 0px; text-transform: none; widows: 2; word-spacing: 0px; -webkit-text-stroke-width: 0px; background-color: rgb(255, 255, 255); text-decoration-thickness: initial; text-decoration-style: initial; text-decoration-color: initial; float: none; display: inline !important;&quot;&gt;[completed == false]&lt;/span&gt;" style="text;whiteSpace=wrap;html=1;fontSize=9;fontFamily=Roboto Mono;fontColor=#B3B3B3;verticalAlign=middle;fontStyle=1;" parent="1" vertex="1">
                    <mxGeometry x="462" y="750" width="130" height="20" as="geometry"/>
                </mxCell>
                <mxCell id="114" value="act.py" style="rounded=0;strokeColor=#000000;fillColor=#f5f5f5;fontColor=#B3B3B3;labelBackgroundColor=default;labelBorderColor=none;spacingLeft=2;html=1;fontSize=9;fontFamily=Roboto Mono;fontSource=https%3A%2F%2Ffonts.googleapis.com%2Fcss%3Ffamily%3DRoboto%2BMono;verticalAlign=bottom;spacingTop=0;labelPosition=right;verticalLabelPosition=top;align=left;spacingBottom=-10;spacingRight=2;" parent="1" vertex="1">
                    <mxGeometry x="530" y="790" width="10" height="80" as="geometry"/>
                </mxCell>
                <mxCell id="115" value="&lt;font style=&quot;font-size: 9px;&quot; data-font-src=&quot;https://fonts.googleapis.com/css?family=Roboto+Mono&quot; face=&quot;Roboto Mono&quot;&gt;act(ActionElement[], Query)&lt;/font&gt;" style="endArrow=block;html=1;endFill=1;fontSize=9;" parent="1" edge="1">
                    <mxGeometry x="1" y="14" width="50" height="50" relative="1" as="geometry">
                        <mxPoint x="460" y="790" as="sourcePoint"/>
                        <mxPoint x="530" y="790" as="targetPoint"/>
                        <mxPoint x="10" y="4" as="offset"/>
                    </mxGeometry>
                </mxCell>
                <mxCell id="116" value="LLM API" style="rounded=0;strokeColor=#000000;fillColor=#f5f5f5;fontColor=#B3B3B3;labelBackgroundColor=default;labelBorderColor=none;spacingLeft=2;html=1;fontSize=9;fontFamily=Roboto Mono;fontSource=https%3A%2F%2Ffonts.googleapis.com%2Fcss%3Ffamily%3DRoboto%2BMono;verticalAlign=bottom;spacingTop=0;labelPosition=right;verticalLabelPosition=top;align=left;spacingBottom=-12;spacingRight=2;fontStyle=2;" parent="1" vertex="1">
                    <mxGeometry x="630" y="820" width="10" height="20" as="geometry"/>
                </mxCell>
                <mxCell id="117" value="&lt;font face=&quot;Roboto Mono&quot;&gt;&lt;i&gt;litellm&lt;/i&gt;.completion(prompt)&lt;/font&gt;" style="endArrow=block;html=1;endFill=1;fontSize=9;entryX=0;entryY=0;entryDx=0;entryDy=0;" parent="1" target="116" edge="1">
                    <mxGeometry x="1" y="10" width="50" height="50" relative="1" as="geometry">
                        <mxPoint x="540" y="820" as="sourcePoint"/>
                        <mxPoint x="620" y="820" as="targetPoint"/>
                        <mxPoint as="offset"/>
                    </mxGeometry>
                </mxCell>
                <mxCell id="118" value="&lt;font style=&quot;font-size: 9px;&quot; data-font-src=&quot;https://fonts.googleapis.com/css?family=Roboto+Mono&quot; face=&quot;Roboto Mono&quot;&gt;response&lt;/font&gt;" style="endArrow=open;html=1;endFill=0;dashed=1;fontSize=9;exitX=0;exitY=1;exitDx=0;exitDy=0;" parent="1" edge="1">
                    <mxGeometry x="-0.0588" y="-10" width="50" height="50" relative="1" as="geometry">
                        <mxPoint x="630" y="840" as="sourcePoint"/>
                        <mxPoint x="545" y="840" as="targetPoint"/>
                        <mxPoint as="offset"/>
                    </mxGeometry>
                </mxCell>
                <mxCell id="119" value="" style="rounded=0;labelBackgroundColor=default;labelBorderColor=none;spacingLeft=0;html=1;fontSize=9;fontFamily=Roboto Mono;fontSource=https%3A%2F%2Ffonts.googleapis.com%2Fcss%3Ffamily%3DRoboto%2BMono;verticalAlign=top;spacingTop=1;labelPosition=center;verticalLabelPosition=middle;align=center;" parent="1" vertex="1">
                    <mxGeometry x="535" y="810" width="10" height="50" as="geometry"/>
                </mxCell>
                <mxCell id="120" value="&lt;font style=&quot;font-size: 9px;&quot; data-font-src=&quot;https://fonts.googleapis.com/css?family=Roboto+Mono&quot; face=&quot;Roboto Mono&quot;&gt;Action&lt;/font&gt;" style="endArrow=open;html=1;endFill=0;dashed=1;fontSize=9;entryX=1;entryY=1;entryDx=0;entryDy=0;exitX=1;exitY=1;exitDx=0;exitDy=0;rounded=0;align=left;" parent="1" edge="1">
                    <mxGeometry x="-0.1093" y="7" width="50" height="50" relative="1" as="geometry">
                        <mxPoint x="545" y="850" as="sourcePoint"/>
                        <mxPoint x="540" y="860" as="targetPoint"/>
                        <mxPoint as="offset"/>
                        <Array as="points">
                            <mxPoint x="570" y="850"/>
                            <mxPoint x="570" y="860"/>
                        </Array>
                    </mxGeometry>
                </mxCell>
                <mxCell id="121" value="&lt;span style=&quot;font-family: &amp;quot;Roboto Mono&amp;quot;; text-align: left;&quot;&gt;Action&lt;/span&gt;" style="endArrow=open;html=1;endFill=0;fontSize=9;" parent="1" edge="1">
                    <mxGeometry y="-10" width="50" height="50" relative="1" as="geometry">
                        <mxPoint x="530" y="870" as="sourcePoint"/>
                        <mxPoint x="460" y="870" as="targetPoint"/>
                        <mxPoint as="offset"/>
                    </mxGeometry>
                </mxCell>
                <mxCell id="122" value="&lt;font style=&quot;font-size: 9px;&quot; data-font-src=&quot;https://fonts.googleapis.com/css?family=Roboto+Mono&quot; face=&quot;Roboto Mono&quot;&gt;ResponseBody&lt;/font&gt;" style="endArrow=open;html=1;endFill=0;dashed=1;fontSize=9;exitX=0;exitY=1;exitDx=0;exitDy=0;" parent="1" edge="1">
                    <mxGeometry x="-0.1111" y="10" width="50" height="50" relative="1" as="geometry">
                        <mxPoint x="450" y="890" as="sourcePoint"/>
                        <mxPoint x="280" y="890" as="targetPoint"/>
                        <mxPoint as="offset"/>
                    </mxGeometry>
                </mxCell>
                <mxCell id="127" value="&lt;span style=&quot;color: rgb(0, 0, 0); font-family: &amp;quot;Roboto Mono&amp;quot;; font-size: 9px; font-style: normal; font-variant-ligatures: normal; font-variant-caps: normal; letter-spacing: normal; orphans: 2; text-align: center; text-indent: 0px; text-transform: none; widows: 2; word-spacing: 0px; -webkit-text-stroke-width: 0px; background-color: rgb(255, 255, 255); text-decoration-thickness: initial; text-decoration-style: initial; text-decoration-color: initial; float: none; display: inline !important;&quot;&gt;[response.next_action == false]&lt;/span&gt;" style="text;whiteSpace=wrap;html=1;fontSize=9;fontFamily=Roboto Mono;fontColor=#B3B3B3;verticalAlign=middle;fontStyle=1;" parent="1" vertex="1">
                    <mxGeometry x="282" y="909" width="170" height="20" as="geometry"/>
                </mxCell>
                <mxCell id="128" value="&lt;font style=&quot;font-size: 9px;&quot; data-font-src=&quot;https://fonts.googleapis.com/css?family=Roboto+Mono&quot; face=&quot;Roboto Mono&quot;&gt;ResponseBody&lt;/font&gt;" style="endArrow=open;html=1;endFill=0;dashed=1;fontSize=9;exitX=0;exitY=1;exitDx=0;exitDy=0;" parent="1" edge="1">
                    <mxGeometry y="10" width="50" height="50" relative="1" as="geometry">
                        <mxPoint x="270" y="989.9999999999959" as="sourcePoint"/>
                        <mxPoint x="200" y="990" as="targetPoint"/>
                        <mxPoint as="offset"/>
                    </mxGeometry>
                </mxCell>
                <mxCell id="129" value="&lt;font style=&quot;font-size: 10px;&quot; data-font-src=&quot;https://fonts.googleapis.com/css?family=Roboto+Mono&quot;&gt;display results&lt;/font&gt;" style="endArrow=open;html=1;endFill=0;fontSize=9;" parent="1" edge="1">
                    <mxGeometry y="10" width="50" height="50" relative="1" as="geometry">
                        <mxPoint x="190" y="1000" as="sourcePoint"/>
                        <mxPoint x="110" y="1000" as="targetPoint"/>
                        <mxPoint as="offset"/>
                    </mxGeometry>
                </mxCell>
                <mxCell id="137" value="&lt;p style=&quot;line-height: 110%; font-size: 10px;&quot;&gt;&lt;span style=&quot;font-size: 10px;&quot;&gt;Browser Extension&lt;/span&gt;&lt;/p&gt;" style="rounded=0;whiteSpace=wrap;html=1;strokeColor=#6c8ebf;fontStyle=1;fontSize=10;fillColor=#dae8fc;" parent="1" vertex="1">
                    <mxGeometry x="160" y="50" width="230" height="20" as="geometry"/>
                </mxCell>
                <mxCell id="138" value="&lt;p style=&quot;line-height: 110%;&quot;&gt;&lt;span style=&quot;font-size: 10px;&quot;&gt;API Server&lt;/span&gt;&lt;/p&gt;" style="rounded=0;whiteSpace=wrap;html=1;strokeColor=#82b366;fontStyle=1;fillColor=#d5e8d4;" parent="1" vertex="1">
                    <mxGeometry x="420" y="50" width="150" height="20" as="geometry"/>
                </mxCell>
                <mxCell id="142" value="&lt;span style=&quot;color: rgb(0, 0, 0); font-family: &amp;quot;Roboto Mono&amp;quot;; font-size: 9px; font-style: normal; font-variant-ligatures: normal; font-variant-caps: normal; letter-spacing: normal; orphans: 2; text-align: center; text-indent: 0px; text-transform: none; widows: 2; word-spacing: 0px; -webkit-text-stroke-width: 0px; background-color: rgb(255, 255, 255); text-decoration-thickness: initial; text-decoration-style: initial; text-decoration-color: initial; float: none; display: inline !important;&quot;&gt;[continous == true &amp;amp;&amp;amp; response.isComplete == false]&lt;/span&gt;" style="text;whiteSpace=wrap;html=1;fontSize=9;fontFamily=Roboto Mono;fontColor=#B3B3B3;verticalAlign=middle;fontStyle=1;" parent="1" vertex="1">
                    <mxGeometry x="202" y="173" width="280" height="20" as="geometry"/>
                </mxCell>
                <mxCell id="68" value="process.ts" style="rounded=0;strokeColor=#000000;fillColor=#f5f5f5;fontColor=#B3B3B3;labelBackgroundColor=default;labelBorderColor=none;spacingLeft=2;html=1;fontSize=9;fontFamily=Roboto Mono;fontSource=https%3A%2F%2Ffonts.googleapis.com%2Fcss%3Ffamily%3DRoboto%2BMono;verticalAlign=bottom;spacingTop=0;labelPosition=right;verticalLabelPosition=top;align=left;spacingBottom=-10;spacingRight=2;" parent="1" vertex="1">
                    <mxGeometry x="270" y="210" width="10" height="780" as="geometry"/>
                </mxCell>
                <mxCell id="147" value="&lt;span style=&quot;text-align: right;&quot;&gt;get-webpage-data.ts&lt;/span&gt;" style="rounded=0;labelBackgroundColor=default;labelBorderColor=none;spacingLeft=2;html=1;fontSize=9;fontFamily=Roboto Mono;fontSource=https%3A%2F%2Ffonts.googleapis.com%2Fcss%3Ffamily%3DRoboto%2BMono;verticalAlign=bottom;spacingTop=0;labelPosition=right;verticalLabelPosition=top;align=left;spacingBottom=-10;spacingRight=2;fillColor=#f5f5f5;fontColor=#B3B3B3;strokeColor=#000000;" parent="1" vertex="1">
                    <mxGeometry x="350" y="240" width="10" height="20" as="geometry"/>
                </mxCell>
                <mxCell id="148" value="&lt;span style=&quot;font-family: &amp;quot;Roboto Mono&amp;quot;;&quot;&gt;getWebpageData()&lt;/span&gt;" style="endArrow=block;html=1;endFill=1;fontSize=9;entryX=0;entryY=0;entryDx=0;entryDy=0;" parent="1" target="147" edge="1">
                    <mxGeometry x="0.4286" y="10" width="50" height="50" relative="1" as="geometry">
                        <mxPoint x="280" y="240" as="sourcePoint"/>
                        <mxPoint x="390" y="240" as="targetPoint"/>
                        <mxPoint as="offset"/>
                    </mxGeometry>
                </mxCell>
                <mxCell id="149" value="&lt;span style=&quot;font-family: &amp;quot;Roboto Mono&amp;quot;;&quot;&gt;WebpageData&lt;/span&gt;" style="endArrow=open;html=1;endFill=0;fontSize=9;exitX=0;exitY=1;exitDx=0;exitDy=0;dashed=1;" parent="1" edge="1">
                    <mxGeometry y="-10" width="50" height="50" relative="1" as="geometry">
                        <mxPoint x="350" y="260" as="sourcePoint"/>
                        <mxPoint x="280" y="260" as="targetPoint"/>
                        <mxPoint as="offset"/>
                    </mxGeometry>
                </mxCell>
                <mxCell id="154" value="&lt;span style=&quot;text-align: right;&quot;&gt;execute-action.ts&lt;/span&gt;" style="rounded=0;strokeColor=#000000;fillColor=#f5f5f5;fontColor=#B3B3B3;labelBackgroundColor=default;labelBorderColor=none;spacingLeft=2;html=1;fontSize=9;fontFamily=Roboto Mono;fontSource=https%3A%2F%2Ffonts.googleapis.com%2Fcss%3Ffamily%3DRoboto%2BMono;verticalAlign=bottom;spacingTop=0;labelPosition=right;verticalLabelPosition=top;align=left;spacingBottom=-10;spacingRight=2;" parent="1" vertex="1">
                    <mxGeometry x="350" y="949" width="10" height="20" as="geometry"/>
                </mxCell>
                <mxCell id="155" value="&lt;span style=&quot;font-family: &amp;quot;Roboto Mono&amp;quot;;&quot;&gt;executeAction(Action)&lt;/span&gt;" style="endArrow=block;html=1;endFill=1;fontSize=9;entryX=0;entryY=0;entryDx=0;entryDy=0;" parent="1" target="154" edge="1">
                    <mxGeometry x="0.7143" y="9" width="50" height="50" relative="1" as="geometry">
                        <mxPoint x="280" y="949" as="sourcePoint"/>
                        <mxPoint x="390" y="949" as="targetPoint"/>
                        <mxPoint as="offset"/>
                    </mxGeometry>
                </mxCell>
                <mxCell id="156" value="&lt;span style=&quot;font-family: &amp;quot;Roboto Mono&amp;quot;;&quot;&gt;ActionResult&lt;/span&gt;" style="endArrow=open;html=1;endFill=0;fontSize=9;exitX=0;exitY=1;exitDx=0;exitDy=0;dashed=1;" parent="1" edge="1">
                    <mxGeometry y="-10" width="50" height="50" relative="1" as="geometry">
                        <mxPoint x="350" y="969" as="sourcePoint"/>
                        <mxPoint x="280" y="969" as="targetPoint"/>
                        <mxPoint as="offset"/>
                    </mxGeometry>
                </mxCell>
                <mxCell id="160" value="&lt;p style=&quot;line-height: 110%;&quot;&gt;&lt;span style=&quot;font-size: 10px;&quot;&gt;External API&lt;/span&gt;&lt;/p&gt;" style="rounded=0;whiteSpace=wrap;html=1;strokeColor=#666666;fontStyle=1;fillColor=#f5f5f5;fontColor=#333333;" parent="1" vertex="1">
                    <mxGeometry x="600" y="50" width="70" height="20" as="geometry"/>
                </mxCell>
                <mxCell id="bXUwZt-eejmS2oAzGcIJ-232" style="edgeStyle=orthogonalEdgeStyle;rounded=0;html=1;exitX=0.5;exitY=1;exitDx=0;exitDy=0;entryX=0.5;entryY=0;entryDx=0;entryDy=0;fontSize=8;" parent="1" source="bXUwZt-eejmS2oAzGcIJ-236" target="bXUwZt-eejmS2oAzGcIJ-248" edge="1">
                    <mxGeometry relative="1" as="geometry"/>
                </mxCell>
                <mxCell id="bXUwZt-eejmS2oAzGcIJ-233" value="Contents&lt;br&gt;&lt;span style=&quot;font-weight: normal;&quot;&gt;[&quot;Alex graduated from Bard College in 2024&quot;, &lt;br&gt;&quot;Alex studied Computer Science&quot;,&lt;br&gt;&quot;Alex was born in New York, NY&quot;, ...]&lt;/span&gt;" style="edgeLabel;html=1;align=center;verticalAlign=middle;resizable=0;points=[];fontSize=8;fontStyle=1;labelBackgroundColor=default;" parent="bXUwZt-eejmS2oAzGcIJ-232" vertex="1" connectable="0">
                    <mxGeometry x="-0.4527" y="1" relative="1" as="geometry">
                        <mxPoint x="-1" y="8" as="offset"/>
                    </mxGeometry>
                </mxCell>
                <mxCell id="bXUwZt-eejmS2oAzGcIJ-234" style="edgeStyle=orthogonalEdgeStyle;rounded=0;html=1;exitX=1;exitY=0.5;exitDx=0;exitDy=0;entryX=0.5;entryY=0;entryDx=0;entryDy=0;fontSize=8;" parent="1" source="bXUwZt-eejmS2oAzGcIJ-236" target="bXUwZt-eejmS2oAzGcIJ-253" edge="1">
                    <mxGeometry relative="1" as="geometry"/>
                </mxCell>
                <mxCell id="bXUwZt-eejmS2oAzGcIJ-235" value="&lt;b&gt;Actions&lt;/b&gt;&lt;br&gt;[&quot;[1] INPUT Search&quot;,&lt;br&gt;&quot;[2] LINK Bard College&quot;, ...]" style="edgeLabel;html=1;align=center;verticalAlign=middle;resizable=0;points=[];fontSize=8;" parent="bXUwZt-eejmS2oAzGcIJ-234" vertex="1" connectable="0">
                    <mxGeometry x="-0.4769" y="-1" relative="1" as="geometry">
                        <mxPoint x="1" y="300" as="offset"/>
                    </mxGeometry>
                </mxCell>
                <mxCell id="bXUwZt-eejmS2oAzGcIJ-236" value="&lt;p style=&quot;line-height: 80%;&quot;&gt;&lt;span style=&quot;font-size: 10px;&quot;&gt;&lt;b&gt;Parse&lt;/b&gt;&lt;/span&gt;&lt;br&gt;&lt;/p&gt;" style="rounded=0;whiteSpace=wrap;html=1;strokeColor=#666666;perimeterSpacing=0;spacingTop=-1;fontStyle=0;fillColor=#f5f5f5;fontColor=#333333;" parent="1" vertex="1">
                    <mxGeometry x="-300" y="210" width="80" height="40" as="geometry"/>
                </mxCell>
                <mxCell id="bXUwZt-eejmS2oAzGcIJ-237" style="edgeStyle=orthogonalEdgeStyle;html=1;entryX=0.5;entryY=0;entryDx=0;entryDy=0;fontSize=10;rounded=0;exitX=0.5;exitY=1;exitDx=0;exitDy=0;" parent="1" source="bXUwZt-eejmS2oAzGcIJ-239" target="bXUwZt-eejmS2oAzGcIJ-244" edge="1">
                    <mxGeometry relative="1" as="geometry"/>
                </mxCell>
                <mxCell id="bXUwZt-eejmS2oAzGcIJ-238" style="edgeStyle=orthogonalEdgeStyle;rounded=0;html=1;exitX=0.5;exitY=1;exitDx=0;exitDy=0;entryX=0.5;entryY=0;entryDx=0;entryDy=0;fontSize=8;" parent="1" source="bXUwZt-eejmS2oAzGcIJ-239" target="bXUwZt-eejmS2oAzGcIJ-247" edge="1">
                    <mxGeometry relative="1" as="geometry">
                        <Array as="points">
                            <mxPoint x="-390" y="110"/>
                            <mxPoint x="-260" y="110"/>
                        </Array>
                    </mxGeometry>
                </mxCell>
                <mxCell id="bXUwZt-eejmS2oAzGcIJ-239" value="&lt;p style=&quot;line-height: 120%; font-size: 10px;&quot;&gt;&lt;span style=&quot;font-size: 10px;&quot;&gt;Start&lt;/span&gt;&lt;br&gt;&lt;/p&gt;" style="rounded=1;whiteSpace=wrap;html=1;perimeterSpacing=0;arcSize=50;fontStyle=1;spacingBottom=0;spacingTop=-1;fontSize=10;fillColor=#e1d5e7;strokeColor=#9673a6;" parent="1" vertex="1">
                    <mxGeometry x="-430" y="50" width="80" height="40" as="geometry"/>
                </mxCell>
                <mxCell id="bXUwZt-eejmS2oAzGcIJ-240" style="edgeStyle=orthogonalEdgeStyle;rounded=0;html=1;exitX=0.5;exitY=1;exitDx=0;exitDy=0;entryX=0;entryY=0.5;entryDx=0;entryDy=0;fontSize=8;" parent="1" source="bXUwZt-eejmS2oAzGcIJ-244" target="bXUwZt-eejmS2oAzGcIJ-248" edge="1">
                    <mxGeometry relative="1" as="geometry"/>
                </mxCell>
                <mxCell id="bXUwZt-eejmS2oAzGcIJ-242" style="edgeStyle=orthogonalEdgeStyle;rounded=0;html=1;exitX=0.5;exitY=1;exitDx=0;exitDy=0;entryX=0;entryY=0.5;entryDx=0;entryDy=0;fontSize=8;" parent="1" source="bXUwZt-eejmS2oAzGcIJ-244" target="bXUwZt-eejmS2oAzGcIJ-250" edge="1">
                    <mxGeometry relative="1" as="geometry"/>
                </mxCell>
                <mxCell id="bXUwZt-eejmS2oAzGcIJ-243" value="&lt;b style=&quot;border-color: var(--border-color);&quot;&gt;Query&lt;/b&gt;&lt;br style=&quot;border-color: var(--border-color);&quot;&gt;[Alex, studied at, ?]" style="edgeLabel;html=1;align=center;verticalAlign=middle;resizable=0;points=[];fontSize=8;spacing=2;labelBorderColor=none;" parent="bXUwZt-eejmS2oAzGcIJ-242" vertex="1" connectable="0">
                    <mxGeometry x="0.7433" relative="1" as="geometry">
                        <mxPoint x="-34" y="-334" as="offset"/>
                    </mxGeometry>
                </mxCell>
                <mxCell id="bXUwZt-eejmS2oAzGcIJ-244" value="Input &lt;br style=&quot;font-size: 9px;&quot;&gt;Query" style="shape=parallelogram;perimeter=parallelogramPerimeter;whiteSpace=wrap;html=1;fixedSize=1;rounded=0;size=8.000874837239593;fontSize=9;fontStyle=1;fillColor=#fff2cc;strokeColor=#d6b656;" parent="1" vertex="1">
                    <mxGeometry x="-430" y="130" width="80" height="40" as="geometry"/>
                </mxCell>
                <mxCell id="bXUwZt-eejmS2oAzGcIJ-245" style="edgeStyle=orthogonalEdgeStyle;html=1;entryX=0.5;entryY=0;entryDx=0;entryDy=0;fontSize=8;rounded=0;" parent="1" source="bXUwZt-eejmS2oAzGcIJ-247" target="bXUwZt-eejmS2oAzGcIJ-236" edge="1">
                    <mxGeometry relative="1" as="geometry"/>
                </mxCell>
                <mxCell id="bXUwZt-eejmS2oAzGcIJ-246" value="&lt;b&gt;HTML code&lt;/b&gt;&lt;br&gt;&quot;&amp;lt;html&amp;gt;...&amp;lt;/html&amp;gt;&quot;" style="edgeLabel;html=1;align=center;verticalAlign=middle;resizable=0;points=[];fontSize=8;" parent="bXUwZt-eejmS2oAzGcIJ-245" vertex="1" connectable="0">
                    <mxGeometry x="-0.561" y="-1" relative="1" as="geometry">
                        <mxPoint x="1" y="7" as="offset"/>
                    </mxGeometry>
                </mxCell>
                <mxCell id="bXUwZt-eejmS2oAzGcIJ-247" value="Read &lt;br style=&quot;font-size: 9px;&quot;&gt;Browser &lt;br style=&quot;font-size: 9px;&quot;&gt;Context" style="shape=parallelogram;perimeter=parallelogramPerimeter;whiteSpace=wrap;html=1;fixedSize=1;rounded=0;size=8.000874837239593;fontSize=9;fontStyle=1;fillColor=#fff2cc;strokeColor=#d6b656;" parent="1" vertex="1">
                    <mxGeometry x="-300" y="130" width="80" height="40" as="geometry"/>
                </mxCell>
                <mxCell id="bXUwZt-eejmS2oAzGcIJ-248" value="&lt;p style=&quot;line-height: 80%;&quot;&gt;&lt;span style=&quot;font-size: 10px;&quot;&gt;&lt;b&gt;Filter&lt;/b&gt;&lt;/span&gt;&lt;br&gt;&lt;/p&gt;" style="rounded=0;whiteSpace=wrap;html=1;strokeColor=#666666;perimeterSpacing=0;spacingTop=-1;fontStyle=0;fillColor=#f5f5f5;fontColor=#333333;" parent="1" vertex="1">
                    <mxGeometry x="-300" y="310" width="80" height="40" as="geometry"/>
                </mxCell>
                <mxCell id="bXUwZt-eejmS2oAzGcIJ-249" value="&lt;p style=&quot;line-height: 80%;&quot;&gt;&lt;span style=&quot;font-size: 10px;&quot;&gt;&lt;b&gt;Extract&lt;/b&gt;&lt;/span&gt;&lt;br&gt;&lt;/p&gt;" style="rounded=0;whiteSpace=wrap;html=1;strokeColor=#666666;perimeterSpacing=0;spacingTop=-1;fontStyle=0;fillColor=#f5f5f5;fontColor=#333333;" parent="1" vertex="1">
                    <mxGeometry x="-300" y="400" width="80" height="40" as="geometry"/>
                </mxCell>
                <mxCell id="bXUwZt-eejmS2oAzGcIJ-250" value="&lt;p style=&quot;line-height: 80%;&quot;&gt;&lt;span style=&quot;font-size: 10px;&quot;&gt;&lt;b&gt;Evaluate&lt;/b&gt;&lt;/span&gt;&lt;br&gt;&lt;/p&gt;" style="rounded=0;whiteSpace=wrap;html=1;strokeColor=#d79b00;perimeterSpacing=0;spacingTop=-1;fontStyle=0;fillColor=#ffe6cc;" parent="1" vertex="1">
                    <mxGeometry x="-300" y="500" width="80" height="40" as="geometry"/>
                </mxCell>
                <mxCell id="bXUwZt-eejmS2oAzGcIJ-251" style="edgeStyle=orthogonalEdgeStyle;rounded=0;html=1;exitX=1;exitY=0.5;exitDx=0;exitDy=0;entryX=1;entryY=0.5;entryDx=0;entryDy=0;fontSize=8;" parent="1" source="bXUwZt-eejmS2oAzGcIJ-253" target="bXUwZt-eejmS2oAzGcIJ-247" edge="1">
                    <mxGeometry relative="1" as="geometry">
                        <Array as="points">
                            <mxPoint x="-70" y="620"/>
                            <mxPoint x="-70" y="150"/>
                        </Array>
                    </mxGeometry>
                </mxCell>
                <mxCell id="bXUwZt-eejmS2oAzGcIJ-252" value="&lt;b&gt;Execute Action&lt;/b&gt;&lt;br&gt;&quot;TYPESUBMIT [1] 'Alex'&quot;" style="edgeLabel;html=1;align=center;verticalAlign=middle;resizable=0;points=[];fontSize=8;" parent="bXUwZt-eejmS2oAzGcIJ-251" vertex="1" connectable="0">
                    <mxGeometry x="0.7631" relative="1" as="geometry">
                        <mxPoint x="8" as="offset"/>
                    </mxGeometry>
                </mxCell>
                <mxCell id="bXUwZt-eejmS2oAzGcIJ-253" value="&lt;p style=&quot;line-height: 80%;&quot;&gt;&lt;span style=&quot;font-size: 10px;&quot;&gt;&lt;b&gt;Act&lt;/b&gt;&lt;/span&gt;&lt;br&gt;&lt;/p&gt;" style="rounded=0;whiteSpace=wrap;html=1;strokeColor=#d79b00;perimeterSpacing=0;spacingTop=-1;fontStyle=0;fillColor=#ffe6cc;" parent="1" vertex="1">
                    <mxGeometry x="-170" y="600" width="80" height="40" as="geometry"/>
                </mxCell>
                <mxCell id="bXUwZt-eejmS2oAzGcIJ-254" style="edgeStyle=orthogonalEdgeStyle;rounded=0;html=1;exitX=0.5;exitY=1;exitDx=0;exitDy=0;entryX=0.5;entryY=0;entryDx=0;entryDy=0;fontSize=8;" parent="1" source="bXUwZt-eejmS2oAzGcIJ-248" target="bXUwZt-eejmS2oAzGcIJ-249" edge="1">
                    <mxGeometry relative="1" as="geometry">
                        <mxPoint x="-250" y="260" as="sourcePoint"/>
                        <mxPoint x="-250" y="340" as="targetPoint"/>
                    </mxGeometry>
                </mxCell>
                <mxCell id="bXUwZt-eejmS2oAzGcIJ-255" value="Contents&lt;br&gt;&lt;span style=&quot;font-weight: normal;&quot;&gt;[&quot;Alex graduated from Bard College in 2024&quot;, &lt;br&gt;&quot;Alex studied Computer Science&quot;]&lt;/span&gt;" style="edgeLabel;html=1;align=center;verticalAlign=middle;resizable=0;points=[];fontSize=8;fontStyle=1" parent="bXUwZt-eejmS2oAzGcIJ-254" vertex="1" connectable="0">
                    <mxGeometry x="-0.4527" y="1" relative="1" as="geometry">
                        <mxPoint x="-1" y="6" as="offset"/>
                    </mxGeometry>
                </mxCell>
                <mxCell id="bXUwZt-eejmS2oAzGcIJ-256" style="edgeStyle=orthogonalEdgeStyle;rounded=0;html=1;exitX=0.5;exitY=1;exitDx=0;exitDy=0;entryX=0.5;entryY=0;entryDx=0;entryDy=0;fontSize=8;" parent="1" source="bXUwZt-eejmS2oAzGcIJ-249" target="bXUwZt-eejmS2oAzGcIJ-250" edge="1">
                    <mxGeometry relative="1" as="geometry">
                        <mxPoint x="-250" y="380" as="sourcePoint"/>
                        <mxPoint x="-250" y="460" as="targetPoint"/>
                    </mxGeometry>
                </mxCell>
                <mxCell id="bXUwZt-eejmS2oAzGcIJ-257" value="Relations&lt;br&gt;&lt;span style=&quot;font-weight: normal;&quot;&gt;[[Alex, graduated, Bard College], &lt;br&gt;[Alex, graduated in, 2024]&lt;br&gt;[Alex, studied, Computer Science]]&lt;/span&gt;" style="edgeLabel;html=1;align=center;verticalAlign=middle;resizable=0;points=[];fontSize=8;fontStyle=1" parent="bXUwZt-eejmS2oAzGcIJ-256" vertex="1" connectable="0">
                    <mxGeometry x="-0.4527" y="1" relative="1" as="geometry">
                        <mxPoint x="-1" y="8" as="offset"/>
                    </mxGeometry>
                </mxCell>
                <mxCell id="bXUwZt-eejmS2oAzGcIJ-258" style="edgeStyle=orthogonalEdgeStyle;rounded=0;html=1;exitX=0.5;exitY=1;exitDx=0;exitDy=0;entryX=0.5;entryY=0;entryDx=0;entryDy=0;fontSize=8;" parent="1" source="bXUwZt-eejmS2oAzGcIJ-250" target="bXUwZt-eejmS2oAzGcIJ-264" edge="1">
                    <mxGeometry relative="1" as="geometry">
                        <mxPoint x="-250" y="500" as="sourcePoint"/>
                        <mxPoint x="-250" y="570" as="targetPoint"/>
                    </mxGeometry>
                </mxCell>
                <mxCell id="bXUwZt-eejmS2oAzGcIJ-259" value="Relation&lt;br&gt;&lt;span style=&quot;font-weight: normal;&quot;&gt;[Alex, studied at, Bard College]&lt;br&gt;&lt;/span&gt;Completed&lt;br style=&quot;border-color: var(--border-color);&quot;&gt;&lt;span style=&quot;border-color: var(--border-color); font-weight: normal;&quot;&gt;True&lt;/span&gt;&lt;span style=&quot;font-weight: normal;&quot;&gt;&lt;br&gt;&lt;/span&gt;" style="edgeLabel;html=1;align=center;verticalAlign=middle;resizable=0;points=[];fontSize=8;fontStyle=1" parent="bXUwZt-eejmS2oAzGcIJ-258" vertex="1" connectable="0">
                    <mxGeometry x="-0.4527" y="1" relative="1" as="geometry">
                        <mxPoint x="-1" y="9" as="offset"/>
                    </mxGeometry>
                </mxCell>
                <mxCell id="bXUwZt-eejmS2oAzGcIJ-260" style="edgeStyle=orthogonalEdgeStyle;rounded=0;html=1;exitX=1;exitY=0.5;exitDx=0;exitDy=0;entryX=0;entryY=0.5;entryDx=0;entryDy=0;fontSize=8;" parent="1" source="bXUwZt-eejmS2oAzGcIJ-264" target="bXUwZt-eejmS2oAzGcIJ-253" edge="1">
                    <mxGeometry relative="1" as="geometry"/>
                </mxCell>
                <mxCell id="bXUwZt-eejmS2oAzGcIJ-261" value="False" style="edgeLabel;html=1;align=center;verticalAlign=middle;resizable=0;points=[];fontSize=8;fontStyle=2" parent="bXUwZt-eejmS2oAzGcIJ-260" vertex="1" connectable="0">
                    <mxGeometry x="0.0717" relative="1" as="geometry">
                        <mxPoint x="-8" y="-8" as="offset"/>
                    </mxGeometry>
                </mxCell>
                <mxCell id="bXUwZt-eejmS2oAzGcIJ-262" style="edgeStyle=orthogonalEdgeStyle;rounded=0;html=1;exitX=0;exitY=0.5;exitDx=0;exitDy=0;fontSize=8;entryX=1;entryY=0.5;entryDx=0;entryDy=0;" parent="1" source="bXUwZt-eejmS2oAzGcIJ-264" target="bXUwZt-eejmS2oAzGcIJ-266" edge="1">
                    <mxGeometry relative="1" as="geometry">
                        <mxPoint x="-340" y="640" as="targetPoint"/>
                    </mxGeometry>
                </mxCell>
                <mxCell id="bXUwZt-eejmS2oAzGcIJ-263" value="True" style="edgeLabel;html=1;align=center;verticalAlign=middle;resizable=0;points=[];fontSize=8;fontStyle=2" parent="bXUwZt-eejmS2oAzGcIJ-262" vertex="1" connectable="0">
                    <mxGeometry x="-0.18" relative="1" as="geometry">
                        <mxPoint x="2" y="-8" as="offset"/>
                    </mxGeometry>
                </mxCell>
                <mxCell id="bXUwZt-eejmS2oAzGcIJ-264" value="Completed?" style="rhombus;whiteSpace=wrap;html=1;rounded=0;labelBorderColor=none;fontSize=8;fontStyle=3;fillColor=#f5f5f5;fontColor=#333333;strokeColor=#666666;" parent="1" vertex="1">
                    <mxGeometry x="-300" y="600" width="80" height="40" as="geometry"/>
                </mxCell>
                <mxCell id="bXUwZt-eejmS2oAzGcIJ-265" style="edgeStyle=orthogonalEdgeStyle;rounded=0;html=1;exitX=0.5;exitY=1;exitDx=0;exitDy=0;entryX=0.5;entryY=0;entryDx=0;entryDy=0;fontSize=8;" parent="1" source="bXUwZt-eejmS2oAzGcIJ-266" target="bXUwZt-eejmS2oAzGcIJ-267" edge="1">
                    <mxGeometry relative="1" as="geometry"/>
                </mxCell>
                <mxCell id="bXUwZt-eejmS2oAzGcIJ-266" value="Output&lt;br style=&quot;font-size: 9px;&quot;&gt;Relation" style="shape=parallelogram;perimeter=parallelogramPerimeter;whiteSpace=wrap;html=1;fixedSize=1;rounded=0;size=8.000874837239593;fontSize=9;fontStyle=1;fillColor=#f8cecc;strokeColor=#b85450;" parent="1" vertex="1">
                    <mxGeometry x="-430" y="600" width="80" height="40" as="geometry"/>
                </mxCell>
                <mxCell id="bXUwZt-eejmS2oAzGcIJ-267" value="&lt;p style=&quot;line-height: 120%; font-size: 10px;&quot;&gt;&lt;span style=&quot;font-size: 10px;&quot;&gt;End&lt;/span&gt;&lt;br&gt;&lt;/p&gt;" style="rounded=1;whiteSpace=wrap;html=1;perimeterSpacing=0;arcSize=50;fontStyle=1;spacingBottom=0;spacingTop=-1;fontSize=10;fillColor=#e1d5e7;strokeColor=#9673a6;" parent="1" vertex="1">
                    <mxGeometry x="-430" y="680" width="80" height="40" as="geometry"/>
                </mxCell>
                <mxCell id="126" value="opt" style="shape=umlFrame;whiteSpace=wrap;html=1;width=50;height=20;boundedLbl=1;verticalAlign=middle;align=center;spacingLeft=-4;strokeColor=#000000;fontSize=10;spacingTop=-2;fontStyle=1;" parent="1" vertex="1">
                    <mxGeometry x="210" y="909" width="250" height="71" as="geometry"/>
                </mxCell>
                <mxCell id="XWk8T7T39YqbG5rpwUMl-160" value="" style="shape=image;verticalLabelPosition=bottom;labelBackgroundColor=default;verticalAlign=top;aspect=fixed;imageAspect=0;image=data:image/png,iVBORw0KGgoAAAANSUhEUgAAAggAAAC6CAYAAADLYbU0AAAAAXNSR0IArs4c6QAAIABJREFUeF7sXQd4VUXafs/tuTe9NyCh9w5SBRQBRVTE3tvaRdd197etq7uu3VV37YoNCyooKBYQUVCaVOmRFpIQSC+3t3P+553LpUSQAOmZeZ48yb2ZM3POO3NmvvnK+ynt27fXIItEQCIgEZAISAQkAhKBQxBQpIAg54NEQCIgEZAISAQkAjURkAKCnBMSAYmAREAiIBGQCPwOASkgyEkhEZAISAQkAhIBiYAUEOQckAhIBCQCEgGJgETg2AhIDcKxMZI1JAISAYmAREAi0OoQkAJCqxty+cASAYmAREAiIBE4NgJSQDg2RrKGREAiIBGQCEgEWh0CUkBodUMuH1giIBGQCEgEJALHRkAKCMfGSNaQCEgEJAISAYlAq0NACgitbsjlA0sEJAISAYmARODYCEgB4dgYyRoSAYmAREAiIBFodQhIAaHVDbl8YImAREAiIBGQCBwbASkgHBsjWUMiIBGQCEgEJAKtDgEpILS6IZcPLBGQCEgEJAISgWMjIAWEY2Mka0gEJAISAYmARKDVIdCqBITXXnsNU6dOhdfrxUcffYRt27ahoqICZ5555oGBX7RoESorK3Huuedi3Lhx4vvzzz8f1157Ld5//31s3rwZ5513Hl588UVxrSwSAYmAREAiIBFoiQi0KgHhzTffxF/+8hchILz33ntYu3YtHn/8cfTq1QsPPfQQLrzwQjHGt912mxAQvvnmG/zvf//DjTfeiMmTJ2PatGnYtGmT+JvfSwGhJb4S8pkkAhIBiYBEgAi0KgFh1qxZWLx4MQKBACZMmIClS5ceVUDo1KkT2rdvj3vuuQd33303srOz8fbbb0sBQb43EgGJgERAItAqEGhVAsL06dPxyiuvwO/347777sPKlSuPKiBQyzBlyhRRx+PxoGPHjpg/f74UEFrFayEfUiIgEZAISARalYDw+uuv44477hAmho8//hjr1q07qoBAocDlcgnfA2oOBg8ejBUrVggB4YorrgCFjaqqKpSUlAgBQhaJgERAIiARkAi0JARalYDwwAMP4Omnn4bP58Njjz0mnBS5+VM7cMMNN+Dee+8VY3vRRRcJIWLevHngNR988AHOOussbNy4ETt37sSf//znA3OAGgl+L4tEQCIgEZAISARaEgKtSkBoSQMnn0UiIBGQCEgEJAL1iYAUEOoTXdm2REAiIBGQCEgEmikCUkBopgMnb1siIBGQCEgEJAL1iUCdCggGgxlRUWnwep3w+10wm6Pg9dphNkdDpwPi4xOwd+9OEUWgqv76fC7ZtkRAIiARkAhIBCQCJ4FAnQkIaWlZsNmSEBnZGR6PAwZDAIqSiGCwGN27T8SePaugqsXYseNX+HxGZGWlYv365Sdx6/JSiYBEQCIgEZAISATqC4E6ExCSkjIAmJGWNhg7dsxF374jUVIShzZtbOjcuR8UJQFOZym+//5FlJQUICurA3Jy1tXXc8l2JQISAYmAREAiIBE4CQTqTEAI3YMCo9GCQMADo9EEwASdToNeb4CiGEQNt7sKwaA0L5zEmMlLJQJ1hoCiKNDpdAgGg7BYLKJdhgEbjUaoqipYR/k9zYL8OyIiQnzPMGCz2SyuJQ+IyWSCpmniWtZhXV4TbpN12KbBYBD1+T37DNc5Wpvh9lmfdViffbGE+9Xr9XC73eJ7/h2+t/D9sF+2wzrsn5/5d/j7P2qT7bFdtsm/+RPG52htso9wHd4n2w9fy35rtsn64Tpsk9dyXML3ye+I9aHfE1/WCT/7oW3yucNjxv7Zzh+1yXEIjxkxZn22z3b47GGel5ptsi5/eP+sz3bC93mkNsNYsE3Wrzm36mxSy4bqDIE6FhCOdl8K4uJSYbFEoqhoF4xGG3w+O/R6MwAdAgEX9HouMJxwUnios9GVDUkEaiDATcVqtSIpKQn5+fno3r07NmzYIHGSCDQ6AkOHDhV5cZgnh0KHw+Fo9Htq7TdQ7wKCwRCF+Pi26NKlFzIyemPOnP8gLa0vEhNj4HL5kJ+/Ax07dhBCw5YtK4TGobIyTwgLskgEJAJ1iwBPh71790ZRUREKCgrqtnHZmkSgDhDo3LkzoqOjsXr1aqHFkKXxEGggAaEN2rfvjKFDx+Gddx7FyJFXo02b3sjL24RffpmHQYMmYdeuhcjN3QaTySgFhMabD7LnFowAhYO2bdtix44dLfgp5aO1JATi4+NRXl7ekh6pWT1LvQsIITQUWCw2REZGo7KyBFFRSQgE/EJL4PG48dBDb+Af/7hS1NO0YLMCUN6sRKC5IMAU5cxOSnu6LBKB5oAAae2fe+655nCrLfIeG0hA+GPszGYbVNUMv7/iQEXaSg+ql8JqJmX//zXYbPFwOilZ8jsNiqLbb5YIfRZFB2hmFYpPgabXoPh0v7+R8Fc1LRr8Xq8B/nCfNS5l20YVivcIbbbIqSIfqjkjQAczmVSsOY+gvHeJQMMj0GgCgskUhcTEbigry8GIERdg6dLPhPMUTU4pKd2Rm7sabdt2hdUai40bF8Lv90CnMyIjoyOKi3Nxww0f4tVXr0BWVjd4vQ4UF5fBao1EVFQsysqopWiHqkAOHO13Qr8jAr4uTpjWRENN9ENfZAIiVASSvdC7DSF5wqtAiwpAt88CGDQo0UFoxUbAEoRm1ISgoSs1QYsOQI0OQO/VI5DkgzUnBVlZ/VFUtBVVVcUNP4KyR4lALRC47LLLRAZTepfLIhFoLgjExMQgISFBJMmTpeERaDQBwWyOQXb2JOzZ8xOGDRuNVavmoU2bLvD5TBg37i68++7VuOSSh9CmTS88+eSFqKoqhckUjSlTpmLhwo9w0UVPY9q0O3HllXfD7S7Cxx+/jZ49J6Jz5xT8+OM30OmSUVGxCS7XHoGqd0QFDDsj4B9cBcv3iUCmB45TymFZFQOoChSTimB7D0xfJwNGDYgJAoVGIM2HYIwfwUQvTD/HQ+3pgK+9E6aVMdDtsSAhIRvDhl2LJUteRXl5YcOPoOxRIlALBB599FE88sgjIpxOFolAc0Gga9euOOWUU/Duu+82l1tuUffZaAICUdTrGdscgM0WCbfbAaPRDFVVEBUVj8rKPYiJSRbflZbmi5OPougRE5MIh6NS/K+iogixsQnQtAAqKytgsUTBbNbB4agSMbaHFs0aDJkLIlQoTj20/k74Mh0wfZMc0iDQkmDUoNj1ocsoJLC+QRPmCZobFJcesKgh04JHL/7P8EyTyQq3u7JFTQz5MC0LgZSUFBQXF0uv8JY1rC3+acirQPNYVVVVi3/WpviAjSog1AYQEi6FNns9NE2efmqDmawjEaiJAM13LperxQBDtfM555yDzz77DE899RR++OEHzJgxQzwfiXhILkRnTPoyhcl/wqQ+PGxwTSG5ECM7WI9x9yysT1IhXk/yoB49eiAqKgpLliwRhxTWZ6w+OST27t2Lbt26oV+/fvjoo49EfWIc9p+SIXonP92IN8fT6XSefGOyheNGoEkKCD17DsW2bbsAqBg2bBRWrlyIlJSByM39CYmJbVFRkYeuXXtg/fqVx/3A8gKJQGtE4Mknn8SDDz7YYkwMPFW2a9cOGRkZSE9Px+zZswWxTvv27ZGdnS3i6Ddu3CiY/Ww2m3juNm3aCAZFbuRz587FiBEjRNjn999/jwkTJmDdunXC3s0wUAoFJO7Zvn27OL2mpqaKNvbs2SP6jY2NFX+XlpZi1KhRQkDh71WrVgl+CQoZ/J8sJ4dAly5dMGjQILz//vsn15C8+oQQaJICwqmnnge9vgd+/fV79OnTBqtW/YBhw8YIoSEzs5uQ7hWlBD/88PUJPbS8SCLQ2hAYOXKkOAXzFN0SCp3XhgwZIjZznjA3b94sNAK33nqrUEnzOUkGxU2dm/7LL78sfu69917ceOONePXVV4XmgWaXefPm4frrr8ctt9wiSKQmTZqEL774QrR9+eWXC8GDAgOFkZ9//ln8nj59Ohg2+vjjj4vrqIHYsmWL0C78/e9/FxoKyQR48jMtLi5OCGfEVpaGR6BJCgiEITExGxUVxbBazXC57IiMjEIgEPLAtlrjUFKS2/BoyR4lAs0UAW6iPNW2lHI0AeG8885DYWGhOOFXV1cjLS0NmZmZeOGFF/Cf//wHd999Nx566CHk5eVh6dKloOC0e/duoUlglEefPn0wZswYvPXWWyIs9M477xRCAYWNf/3rX3jiiSeEBoF1ad7gd2PHjsVvv/2GTZs24brrrhPtU0CRESMnP9s4zomJiZLc6+ShPKEWmqyAcKynMRjMCARChC9MBhUMHu6UeOj/D22L2geGUh6TypmOiSyqAug0IHgUPoRDGzdoQGB/vUPoGA5UYTvh9ugVuf8wRw4H/tBh84iFbfEnfPjj32yLt8j2jlR4L/xfyzgwHms6yP8fA4GWZmKgCaF///7YtWuXOL2H2SGpAZg6darY1KkdoLr/zDPPxIsvvii0BDQrPPbYY8Kc8MEHHwghgn9/9dVXQiAYN26c8Cd46aWXxAbP8DqaGNgG/Qvuv/9+3HHHHejQoQMuvPBCnH/++UJQoPmmb9++uOCCC4Rmg+1SqyHLySFAE8PAgQPFWMnS8Ag0KwEhPj5ROACR5+C22z7HK69cjLS0bIwYMRGffvoSIiOTYbMZUF6+F7feOgvPPTdRIKrTMSmUirS0zoiJiRYRE3l5O9GxYxcUFeWjutqO5OQkeL02wfBIhqWqLhugKj6gxAA1yQd9fgT0Lj00nw5aRJA+k2KD1jGagVxJbgX2a/MQNa0dtFg/tGQPdLk2qLYANJMKXZkJ/h4OmH6NgtrVCdiN0OXzvoDY2AzExaWIe0lOboe8vPUwGq0wmxNhMsWhxL4CWpJfcDWI6AmLBu+QMuiLzTBtiIbm1UGzBUP9VBsAk4pATwf0ey1I9/VGVZUTLpfk3W/416t+e+S7wOgEJl7iCfaPGBK5OTJUrGZ0T/3eYdNpnf4E3LClN3zTGZPa3AnNOR07dsSiRYtqU13WqWMEmpWA0LZtNjp2HIZly77C9de/hTfeuBVXXHE3bDY9XnzxfvTtey3S0y1YvPhjXH/9m3j++UlCU2AyJSIYtOPqq/+LFSveg8tVjcLCfXjiifcwe/Y7wrFo2LCRsFp7Ydmyz0XERGnpCqiqB8EsF9REH/xZLph3WaEUWKGmeQThEvw6mPMjxGavVetgvyoPUdPbwD+qHEpAhWFJArxDK6HG+WBZkAR/RxdM66J/d6qPikpFdHS6oKA+55y/4LnnpiAiIgUREWmw2TKxc+dHYtg940pgrDBBvyMSvp5VCHZwwfJLPJTdFgQ7uhBM9MG4OgqKEUCxEZGRaejadTR27NiCiop1dTx1ZHONjQDt4lRnU/1Nm/of2bx5cqZKvaX4IDQ29rL/hkGA5gWaiKjlkaXhEWhWAkLotJ0Oh6MMSUntUVS0A8nJGdDpgL17d8NmS4Fer8BuL0FqamcUFlLFRxpmhjBpSE7Oht1eDFUNwufzIiurK8rLy2C3V8NqtQkmxqKiwxm7yKAIowrNEqJV5gmezIo8pVODoHh0wH665WCqF/piE9RYPxSSL1UboEZR26BBV2kEuRjIwRBmgg4PN7kU+GMwGJGQkIGCAt7378M6D7TrNEAzBaHG+aGrNkJx66FZgiEeB4c+ZA7RmAfeJswpgYAMEWr4V6v+e6QqvaSkRDjZHSuhjSRKCoUwcsM5++yzhTMhwxDpl0GtQk5OzmHaFTrH0YwQGRkpruMPox2++eYbIWTJEMb6n9/sQUYxNAzOR+ul2QkIR3oQvrwsx/PS/tE1R/tfOL758DwRjTuAsvfWh8Dtt98unOQoHNS20NmOdvXWYGIIv78McbzyyitBx0U6JTLa4GQL26ZNnHjStENMv/zyywPNHs8adLL3Iq+XCNQ3Ai1CQJg8ebJwPqKalQ5LdEziS7xy5UoRkkRSE8ZH5+bmHlDD0lGJIVAkV+EJgiFSdHyi9zNPDYyXpjc046BZGEtNByQ6MHHBoQMUQ2/ojMQ4bJ7geBqhY1NWVpZQ+4ZjrisqDiahqu8Ble23XATokc/0t5xjW7duPa4H5fynQ19L3cBIBMVIBL6HV199tcCJIYh0POT7SO4Dvst8x/lekoCH7y0L1wdeR60C32F+JtZcByorK0WUQ+fOncVnRjB8/jnNkAcLVeCXXnqp8AF57bXXxFrDtUP6OxzXFD1iZY4rTWlcT2VpeARajIBANStf+CuuuEJ4vNK7mC/y+PHjxabOtKH0ZCb7GQudu7hI0Ct59erVQm04YMAAITDw5EF1Ip1jwgICFwAKIjfccIPwXiZ72ttvvw1u/vyeC/aGDRuEwHDNNdcImxnVlgyb+vbbbxt+ZGWPLQYBbm7Dhg0TmxXn6omUlhbFEMaAEQMkJOJmHPazOHQzGT58OMjnz0ItAg8AYXKk++67D19//bXgVaFGhgeAMGvin/70J3HAoDCxb98+cQ3XC44FtQZHKwzLY9gj/ZooKPAQwogKWU4MAWliODHc6uqqFiEgcLPnIkHtAUlR+DdZ08h0xpM/N3HWCQsHBI9x4dQa8MWncxf/5ndU27IdLsZcDMKOXzxBUJplrDPb4gmFnuNUOXLRoYDBEwQXKv6Pn0OETopkVKur2doK2+HcYqHtPCysnggMXGg5X1uKBoFCON9rCuKk4T0aa+HFF18s3uOysjKxWVMLQCHgvffeExv9zTffjL/97W945513cO2112L9+vVCi3DRRRcJkwSFCx4KWJeaSRInkSOhNoU+DFwHaIqg1udEhbva9NVS63DNpdaHQposDY9AixAQGh422aNEoP4ROPfcc4XAyugDWUIIkCmRAnz4FH8sMiJu+mvWrBHaxU6dOgkzI8mRGP1BZkVqEagt+OSTTzB48GBhOmQh9rfddpswLVAjQCGEWoYHHnhAcB4cTwkfFN544w1BpCSLRKC5INCsBASTKQqRkYmoqipAp06TUFGxGxZLHMrLV8HvNyMuzoYOHXpizZrF0DQboqNT0anTRGzc+A7i4izYteu35jIu8j5bKQKkCeYJlyfiujztN2cTA7UnycnJwoTAnAvhTby2U4TkSfQJoBaBm3VYu0d/AfoiUVtIHwRqa4g9NY/UKFLjEHZ4pFaQmkOaEk8mVJQaTpooZ86cKfo8mbZq+/zNuZ40MTTu6DUrAaFdu1Ho1+9iLFjwD5x++h348st/ixTQo0adjY0b9yEuzoRJk87BsmWLkJvrgMeTB5OJ2drc+Pe/n8Gtt54PTQvRNcsiEWiKCHADoe067BdTV/d41llniXDIY52466q/umiHNn+e6hl5QWfDX3/9tS6aPdBGmAWxThutRWN0nKY2g+ZL+irIcnQEaJ6hE+jatWslTI2AQLMSEKzWBERFpSElJQE5OVsRCJTDZDIjJiYZbndAnLhiYpi5zQ2fz4iqqt2IioqHx+NGp05dsHHj6mNTLDfCIMguJQKnn3668NRmBkJZIEwCdASmYyGjhVpaeCZt6zRfUHtBs4csR0aAAjPnAh3AZWl4BJqVgBCG59DcCwe5CZhjgaRIIT4EahaoLZCcBQ0/qWSPx48AT8v1meDnn//8p0gsRLV5cygPP/ywUP/zfuvS1NKUnp1rEzU7zAMhy5ERoBDFkPUPP/xQQtQICDRLAeGPcIqMjIPN1hsPPzwVd9xxORIS0uB2U7OgYN++CthsZvh8Dtx11z/x2GN/OdBUUlImAAuGDh0PhyMX69atFeaJqqoSmM1R8PmYNjYG+fm5IrES4vzwd3XAsCoK3iEV0O8xQ1dhgq7KADWGTIo6aDpNMC0qLiZuAFyTimCdmwItMhBK6pQYgFJmEH9rBg3eAVWwrI4D/IASoQn6ZpakJCaGuQurV89Dfv4G7Nu3B4mJbeB0VsDlckAz+OEfXQH9b1bAroeu3ChYFgXDIvMzkHnRFupT7eKCfp8FSYEslJTsaYQpJ7sMI8CTUffu3bFs2TLhBFef5a677hJhvk35JE77P+38DBVsLR7/1CTQGfLpp5+uz+Fvtm0z1TNNbtJRt3GGsEUJCAkJKRg0aBJWrvwWV131Gj755K+44YanMHv26+jePRkuVxa6d0/C999/gN2741BUNOcA6hMn3o/i4jx4PAWgkDFo0GgkJLTBrFlPoGvXCdiyZTf+/OcpuO2265GePhqFpYvhMRYiyPDGEeUwFERAtQRh2GeCf0AldFUWBNs5YNgdCeP6aLFx+zo7YNoQBd+EEij5ZjCHVDDFDc1uFNTMphVx5IMFmJWXMsX+w16vXmdh/Pix2LBhO2JigK+/noEpU+7Hhg2/orrag+07PoUSHUQg1YtAigemrTa4zi6CeXUsfO3csP6UhMDQMqjlBpjWxAJ+BZPO/hN27PgFmzfXrV23caZx8+qVTnN0QqTjXEOVQYMG1blfQ13eOx0EeY9UJbemkDaGVo8aNQrfffddXcLZYtrivKCDKkN0ZWl4BFqUgBATEy+iHByOKDz55GP4/vvV6NHjFHz66f8waFB35OaWCuKiJUs+xZAhZ8Nuz8W7774oUJ806UmUluYgPt6CjIwEZGR0g88Xiy+/fATdu4/D5s0luPPO83DLLRchIaEnyso2w+erhBYdgJrhhVJhgK93FYxbIxFs74Su2gLfKWUwlFpgWpgIuHRwjS2BwQfoIgDd9ghokRrUKD9Upw4wAEpAQTDeh4i5KYfNhOTktjj11IuQk7NNpJT97LPnMWjQGVi9eg0iI1Oxd28oDC7Y1QV/tgPm5bFwX1II06o4+DLcsC4OCQjBcgPMy+JFXZstRmSw3LUrxBQpS8MhQLUpPdiPFrtfH3fy73//G1TbN0UTA8MWyTuwcOHCViUcHDrObdt2QUVFMaKihqGwUJocwtjwXaHgKNM918eqcOw2W5SAEH5cnc6EqCg6K9IXQYHX6xJkKVTjGo1mqKoPFkuEqG63V4nfEREx+x0YVej1JDiiDwPg9TphMJgQDGqIiDCjuroGbTLTQOiZEUkRaaBDyZxUKBrNBirApE37kzkx4RMUTWgLREIlXrc/sRLNESJttF47YJI4+DwkcTLD7w/uf44q8Rw+n+fwEU4JQPNBCCviXgL7zRx+XSjhFLvn37I0OAJUnzO2fu7cucIxraHLJZdcgk8//bRJRjGQqIghh62RmjgubjiSkhRceeVt+OKLH3DllWfgkUduR5s2Q7Bt2yZERHREaWnrZWIlqy3X7sZ4Zxr6HW2K/bUIAYFc61yAyZnOOHIyGpIxjae0sGBAWx+dncITjbzrZEajTZahX/w/fzOcirHSYZswJyjVgKxHdRdjqc8880wRD2232xtUTdwUJ5C8pz9GgCxwPLWTsrcxC8PF6ppboS6ep0ePHoKenPkPWlvp0OEcdOkyFMuWvY4xYy7H8uWzcPXVz+Djjx/CuHHXYN68N9Gly2UoKNiIjRuntzZ4xPNy7eWazjkiS8Mj0CIEBOZCYEY10itfdtll+OWXXzBlyhRBiUqq1enTp+OUU04Rm/qiRYsEyqRBzc7OFrTIFBROPfVUuFwuYaelILBz506Rk4HqT9IxU0CgLYyx5GRDI9EJ+fHJjiaLROBoCAwdOlSEL3I+NWZpikRJpDGmU2L4nWxMfBqz7+TkDhg6dLLgeRg/vhdWrNiJLVuWIBh0IxBwNOatNXrfkiipcYegxQgI3MR//PFH8ETCREtMzjR//nxMnDgR77//vog5JlVquFA4II0tyVIoIHAhpxBAb1kKCIzBpiaBIUjM4EbtApM/UVtBalaG3TB2/b///W/jjqDsvUkiQMGU86+pZPLk/F6xYkWTYe6jZo/vKp3P5OmwSU7hJnFT1MCRC4GZSGVpeARahIBA8wB/qPLniZ9mAoZK8Tfjy8PpXQ8NJePmT5MDkzlx86e2gJ/DJgaqtfiZWgW2ETY/8G+2TXspBQkKGbJIBGoiwLnB+dhUmAubGh8IGRJp9pAcAPLdkQg0XQSanYAQch5UERFhg8fD2HFFfDYamVHRAZ3OCL/fA4MhGoFAFfR6bvxBqGqg6Y5CK7szjklUVDQqK0sQEZEMRYmATle93/ejCpGRsXC57NA0AwwGFe3a9Yff78XOnQdpac1mG6xWm2jDZgtlPKQGSFWBYNCDyMgYOJ3ViImJEz4Alba90FI80G+MDqGdwOgTj+CyMM9Ig2YJApqYToCmQPEr4jtySQS6VcNQaoPNHg+fzyvupbmVpmRiYJ6DtLQ0EbHQlHkZGnOMuc5xQnJtO1IRXCyssf//Op1BOGQHg8cgwjJoghslzM1yxMbN9M7e70St8YUAcMht0Amcjt6/K6xKZ2s6XvPe2A8dsvle7f/usGv4Lysdu3VH/j8AaWJozFkINCsBwWaLg9EYh6qqPEyefCNmz562P9oggAEDHsWePe8jM7M99uzJQWLi1SgtfR2qGgm3uwouVznS07siN3dl4yIue0eHDmfissuuxqOPXor09H5wu1UMGTIOsbFx+OablzBp0p1YsmQ6/P7e6NixGqWldhFZ8uuvPxxQkXfuPBLnnHMZ/vvfe3DppY+RhgrbtuWhvNwJpzMHZ555I77++lk8+OAL2LFjE55++i6BvBKrQov1I9DFAVQa4e9WjYg5afCOKYEaUKDz6oVwYMizwj+wCsb5CYJ4Sqcz44ILbsTOnblYterLZjeKNHnQb6YpaDTGjRsnwo0ZuSDNCwenEg81ffqcgrVrFyMmJht+vxMeTxm6dRsKr7cKO3duRiDgQo8ew7F9+w5oWgA+X2lI3k3oJBJMMdKKAnNBwXbodAFkZHRBUVEJ3O4KxMd3Q5G2HK70IhjWREFN8UKNDEDn0UOx66FZNMCpgzrYDsOCeGiJPhH1pAR10OwHo5/S00/F3r0/o1OnAdixYz2Sk3shIiIeOwu+FRs+hWzNqiKQ4RbXkqhNELj5FKhRAahGFYYiCxSXDv7+lTBvTUD3zCEZ1lJzAAAgAElEQVTYtGmleKZDCwVJmoMlUVLjLDnNSkCIjGQuhrYoK9uNtm3boaSkGhkZoxETU42kpLHIz1+Gs84aiB9+WAS9fhzM5lVwu2Owc+c8VFYWIT29PXbskKlzG2eqHew1ObkzkpLSkJOzBH/6031Yt24NiotVmM2pKClZhDPP/D8sXPgSJk68DkVF5Vi27CMMH34Gvv32PcEcyUKN0cSJ52LBgtm49963sWFDDtav/w3FxbsQH69g7Nhb8fnn/0CHDu1gt1dg/frloRswafBMKIHBbYBheQycFxbAOjsD7smF0JWYoRSbYPApUFxGqN0d0C9IgFJtEKqFrKxO8Pv12LNnS2ND2Kz7Z6pmml8ef/zxVhnaeLTB45weN+5K/PLLUphMzCapoaJiC+6/fw4KCtbhww+fgc9XjbvvfgUvvvgQNM0Pj4dsqApSUkICQp8+p8FiScbGjUtgMtkxceLtmD79eXi95cjKGoacnPlwOosAaxDBPg74O1dDV22GIc8If7If+l1WeAeVwza9LRAdDGkEKjn/D5bOnSdj5865uP76Z/DWWw+ic+cRiIlJx9Kl00SlwMBqBNt5gAIjdHoFWoJfhFgbyg0IdHDDH+eFdU46dHlmUb9Ll9PRtm0HLFjw1u8EBPofUEiQOUoa55VvVgICIQqZDDSh4jIYLDCZYmEwULWsRzDoQ3S0VSw6imKDovig11vg8VQiEPDJTI4nOMeo5qOT0KRJkzBr1qwTbOX3l1ElmpqaCYejCh4P82bQpBCB5GSm5/0JcXHxcLuDsNtLEBubgOrqsgMnYKpYbbZIuFxOJCenw+n0wOv1CRWrXq8iOjoJlZXFCAR+bw5QY/1QfDrBWUGiKp3DADU6IDQHVIUKtagKaBEqFIdecFnUZ2FmvwEDBmDGjBn11s0999yD559/vkmo9IcPHy6cgEn93BILT7z0Zdq7d+9xP57RSH4W+kcx+RxNBh707n0qunYdgJkziZcRsbExqKwkHwvXwdD8NhjMwsQwevSfsGzZDKSl9UN+/lJYrVGoqCiBoqigGSIYZLtqiHOF3CgmTnQFSgCC7h0+nTCt6aqNoTq0D9SY/yZTpNBuMEkeqehDvDE6+P0hswPfG5ADhtoHVYFmDob4YNiVUYOm16CzhyjmWchBw/fW53P9Di86l/Pd+Oijj44bS3nBySPQhAUEYQzebxSmYBBx4GUIvUC0tYXrnDwQsgUIR006e9KZk06c9DTnQnfaaadhwYIFItyTXBOsw8WI6mHyTbAuuSe4MJI2lqGfTZGxrzHHmHjR8ZVYUc1PbMMcHD4fhV2DcIZlwiaeBHnCpjNs2EbPMQlzKvA7RtIwjLe2/Ap///vf8cQTT8hxOcok4HiEOVRYhfOe34XHit8Ra37mnOc4hR2VObZM3cz/cczI/Ef/ivXr1zfmlGsRfTMXA9cV5iuRpeERaJICQv/+w4XaOTIySiQlSEvrCLe7KyoqfhRCQWJiO5SXb4XDUS64D0pKCuB0tu544ZOdOtycyPTHcLh3331XRGicc8452LFjh1gI58yZg3/84x8idG/kyJGiO4aVsg4JeEhowh8ukM899xy2bdt2srfUoq7n5kOODqpMV61ahb/+9a9CY0CciSNPSv379xd57zt27Ig333wT//vf//DFF1+IcEAKXY8++ig2b96MnJwcMArg66+/rjWHANvnmLTUzIgnO1kYFk0BjAIwC4mbyJ3C3BDMuMi8GYxo4njceOONgj/lhhtuECHU27dvF/woHEuedhmdwROv3NROdlQgCPDi4uJE2m9ZGh6BJikgjB59Nn79dSMSE5Pg9bpx2WUPYeXK1di69XukpAxCZeVK9Os3BXPmPIpu3fph9+6NqK5uePrahh+u+uuRJ1huIlR387RK7gcueuedd5440XLDeuSRR8SmROIfnpAoKPCUxcWQHBFTp07F+PHjRV1ZDkeAmgPiSwGBmN1+++0CW24ymzZtQkZGBhITE/H6669jxIgRQuhilj/+UDD76aefROZH2mLJrUDsj0dFzzwMzMcgNTtHnpmc2xRsOQbUHhCvxYsXC4GBG9Ts2bOFkHzvvfcKQZjCHv+mHwXrkmiNQgZZVsm9QhbXFi0gHFN5W6PCMesfeVxkFEPjrqRNUkAgJEajRSQ25IknPj4Vfn9A2Kotljg4HHuRkJCJ0lJKlQxzDDYuii2gd5oNLrzwQrEYUmrnZsZNnxqCdevWiRMsNyqecHka5mZFYYEqwLCAwAWSaYW50IZPYi0Amjp5BApg3Dx4GqXgdc011/xOQOCJlYIET6J33nmnwJUnJzKAkg30hRdeELwbjEZgPbb14IMP1ur+KIi88847TcIHoVY33MCViA3nMzUD1KYtX74cV155pfC5ueCCC4Qmgcyp7733HkjTTh+Ka6+9Vmh1KCDQDMfNjLwqFACpafv5559P6Clstk4wGKLgdP4Gq7UjnM5tiI0dBIdjC7zeIsTFDRUOvXb7JlGHod2ZmWMQCJRg375N0OutsFiYvh5wODYjIiIbLtcO8VnLdCPQzQ3j9/EHMsbqElWo5czXglAm2aQgUKw/YMFV4lVoFTooFg0MMlAiNXjHFMG0Nh6MHtflh5wNo6J6CR8xlysXZ5xxDr766i3xfbCzG2p7F4x0+KUPgluBEqVBcyihtPYuBUpCEFqlDoFTy2HZ2gZqkQpVZbhypHgfSGZ3aKGmk+sS3ytq3o6XjZOazrPPPlvkJ6GJ73hKnz6349dfj+4/c8EFz2LmzL8caHLo0ElYtuzYkU9aVACwBaEUmw8LKz3s3hj9qtPgO70MxkXxCAyphH6bFboCy/E8Qq3rNlkBIfwEBgNJigIinFFyGdR6XE+oIjcdno74wlAwC/sj1GyMAgTVrUcKmQsTUB2PKluvD9nejyXo6fUhJ6sTLvTI5knmSDHZR2o0nEBrvzPVCfdbiwuJGzdxahDChRoCahrqolCo48n40ELHsqPF2Z9Un+F4+HAM/NEaOyTRmXCIo8sRfyj2izj/kLMe14BAYH98v/g6lBwtVHF/4/uvO2JXvObIdAKHVT8SuRV9aqj1YTpm+oXQ34DvCDUxnLM1C3Hm98e76bCd7OzRgt9l69Z5IvzX71dQVLQSDz/8A3JyvsInn/xPAHT33a/jv//9m3gorzdE1JaU1EE4bV9wwW1CGzVt2kuIjPRg4sQ7sWmTB3Pn3gabLQMOxy4RKsloHt/wCiiVRuij/VA2R8HfrwrmbZHQYgPAbgsw0C42bWVTJHzjy6DbYoVxZ6RIKOe+NA+Wae0Oe/z27Sk4jcC2bbkYOHAIPvzwVZjNUXA48oSzJUOMA8luaIkBKLFe6L5PhH9EGfRlFuiDemBLhBhXjn27dkMQGZmGzZs/FxpMFgpm9Ef45ptvxEGEQgFNbhTUqIWjxod+VKNHj8aWLVvEIYWCwNixYwW7LoVr0nvTbMq1je1SW3rGGWcIf5E9e/aIv+lPxbYOHcOOHfuhd++z8d13b+G6617Et98+geHDr8M337wHu70IU6c+gy1bFmHOnFfwwAOf4/HHL0YgEMofceGFt2DevG+Qnp4Fuz2Is86aCK/XjrlzF6Nr1yx06TJFJOJ7//0por5vQjFMv5LbRUGgkwPw62H4zSqy/XLcNLse/oklMM5KPqnXtDYXN0kBoV277qiqcoiQtuHDx2LVqsXIyhqATZu+Q2JiGzidVcjMbIOcnLW1eUZZp5EQCJst6MNAj+6aC2qXLv1QWLgPfftOxK5dvyAqyorCwm2Ii0uB2+2A1xtAXFwSSkp2i2yWPXqchmXLPjsQmdCjR19xwrZa46DTaWLOtGnTHno9M3gGUFFRAK9XRdu22XC77SjQNsFjdUC/wypiwPUVJgTj/NA59aENh8Qubj2C8X7oK40IxvqhJflhWheLrKx+KC7OhcMRijuv68KNh6YFmhLChWpsUnqfaOFmxRAxRqAcSpRELZyq+tG16yhs2fI92rXrgZKSXMTGJsHhcMHvd8Hl8qFDh/ZizLZtCznbZWd3Fwtwfn4eIiKMiItLFR7sublbER+fjpKSQrGRqzYPgj3s0G+OhGoLQl9iQjDFB12lAVpUELoyI1R+thvg7VkVSkGe4QudRveZRF9t2gyAyZQGu30jTj/9XMyYwc1Rh2A7J9RsJwyL44UXfjDLA32ZCSjTQ433QwmS4EqFrsQElWNbbYCSHoC2y4T4+CyUl+ceF5w9e/YUp1hqFE6kcBOiVqG2fA/UBiQkDEB29kDk5S3Dvn1rcOONLyA+3oa33noCycnD0LlzPJYsWQBVDaKkZPN+vLoJ0rG0tG7YuHEZMjIGCN+hoUM7YvdumjsOzxnDNPWBQVVAQCe0BsYtUfAOqoC+2Ay9y8T4CHi6VcO0ORo6SwDw6aG59dDnWxDoXQ0t1QPj/MM3qK5dz0C7dukwGg3IymqDF198+HDIkgMIZDoRjPELIcP8YyJ8QytEtISRIca5VsClwGZLEXPQ57MfIEqiVobmNSbLYxQMhTZq0ug4ylTh3PQpFNCMRs0bfXQoQNDcQ80b3wPS5FOLx3eBviI0lQ4cOFDk36GgwHaZM4XrFjWpDMcNFx5QBw8+B9u2LcfQoddg1aqZaNOGfBRrUVW1ERdf/Ajy8zdh+fIvMXnyPZg165ED/j5Dh47C8uU/Y8CAU8X71L59byGMbN68DV5vJZKTqS0PYPfuEJ20f0gFTCvjBJeEmuqBGheA8dcogNoXRlqpQGBQNQxLY05kSh7XNU1SQOjffwI6dx6L776bhT59srB69VIMHjwAv/22E1lZfWC1JiMYLMP8+SEVlizHh0C3bt0EUQ0L1alhCZ2f+TdPszULT0+HFr6oh2oJaHOt+ZlSOk/A1DbwNHyo2cFmS8Ajj0zDs88+gYEDKfwtwS23PIvXXrsb55xzB5Yv/wLp6UORkZGM+fNfFSm327TpigULZsDnI4Mm8MIL7+KJJx7GmDEXCl+Vbdv2YMKES4RQodd7sWzZz8jJ2SnU+Xl5GzFjxrMoLd2DYJIPvmHlMG2NgmdEOSyr4oSQ4G/vgHGXDYFELxSTBsOaaMDO6AILrr76dWzaNAfLl39+xFM3FxT6XzSlQk0PF0KenjimXFDJJdKr12SsXz8fp59+MX766QOcd96d+PLL/6JTpzPRrl03bN/+LXJyynD22Wdi584VWLp0nniskSOvhaKUYMeOXWjTpjtOO+1sLF36OXbs2Iwrr7wP3347D9XVXuzKn4dgZDVUWwDe4RUwrYqBluwTgplvSDkMm6JF6JtSZoIa44VxazRgY2p0hgqE5t7gweMEV0ZRkRujRg3HtGlvISoqHkWulfAZK6DYDQgmeuA9rRS6UjNM3yXCN7EYCjcyVYN5XSzcp5bAuCYGhj1WwKHD4MF/gtP5KzZt+uWIw8SU2HVdKFDxRE8BmfjXfI9q0190dDzS0trV6kA0fPjpWLbsR8TEZKKiIuRwecRCmEVYY/2G8B7Wd5ihsTYPvb8OTT40Y1IIeOaZZ4T5kxs5I6poFuKaQ38cJrriO/jPf/5TOI7Sh4q5R6g1Y/I++vvQXMrcOXT6pdmO/iZ8LygAMssvhQdqEriJU4twaO6eo92ywcAQTefv+BtqaucUxYjo6FhoGpCamobfflsvtFFhJuDftX+CPhvHAW2tqjZJAYHSWmpqB5SWFsNqNcJuL0dUFEO+VAGqzRaPsjKeVho3hW6tEG6ClfgiUQJn4QsSmqihwr8P/Rz+vqZzW011dc3PfMEobPBF5t+0IR6aC4Pq0MzMbDidPlx77VQRsWKzZeHpp2/Addc9DqPRjY8+eh9t23ZG167Z+Oqrd3D55bfj++8XYNmyEBfDc8+9i/vuu0mwaqam9sC+fVsRG9sNKSmdUVCwDPHxSZg+/UUYjeRIcKOsbK/gw6CA4DpvLyyLEgUZEmO0jblW+DrbYVoaDy3VB3+6C5Z5yYA/pPKMj2fCLgcqK6lB+L0+mxsBI2qaUgkvgHQo5Q8FNZMpAlFRKaioKMS9976MYFDD9u1bMGvWf3DDDS+iosKO4uLN0LR07Nz5EyZNOhevvfZ/4rEMhljccsvDmD37TWRm9saoUfSZ0OODD17GVVf9U6jA9+7dBbu9MLRgRgXhPr8Qlu+ToDMrQLkR7vF7oa80IxDjFYJCINsJzaDC+nn6YdCde+4NyM7uiLIyEzp3zsa//nU9jEYT3O4yof3gCdh7ZrEg/NHtMcP4cwLcV+ZD8Rmgz4+AqSACnlPKYVgZA8NmRkMBNlsSTCYFFRXFRxwmRo/UdaGKO3yaZRRJfTiJcr3s02cUFMWPtWsPaqCO9CxauhuBrh4YF8cJdTVP7FofB5RfI6G2cwtNmm6PBVqWK3SiDxe9Bv+ASuhLTdDttNU1TEdtj+8VtQfcxHnYoFnzgw8+EGvU1Vdfjccee0xo3ugjQqyprbn00ksPmB947Zo1azBhwgThf8Nw7WeffVY4mNJvhCf5m266SdShUynNFVyvGEEk8+w0M6rlBpuVrbAjprK+4oor8J///Oeknj6sfTiSfba2DY8efTGKinKxZcuK2l5yXPWCiT74u9thWRwSkuqrhAWtsGalpn8GP4dxOtr/wnUYgseTFNOU0zYa1gqw7UPbPxrutcnFQCczu33DMeBQEB/fB4HAXvTr91f89NO9rcY3iONJVTU5D2prMuCplDbz2hSrNRsPPfQaPvjgaQwbdjFmz54Ot7sEV175KLZsKcLKlU8gIiIOl132Zzz//NWiycGD78Dppw/DggVvCv8FpzMdY8aMxhtvPIPY2Ghcf/1NmDNnDcrKVmHYsKmYP/8BlJZuBKwqfKeVQr8zAt4RZYj4MBOeiUWCIIn2by3dCV9nt9Cy6QrN8PVwwETHRgDnn/808vJIOX5QBV+b5zuROjKK4URQq7trmqQGoe4eT7b0RwjwhEkzAJ2zaI+j9EybN085jOWmfZ/qUW463Kho0wxnvmQdSuc0LaSnp6O4uBgUMmi64P/o5MO2WZ9t19QwtPSRoYaGphxuKuQt4MbC77ix0NTCcFLizpMPcWTUCPHm6YW+A3TGoj2U48CUyLSfUhuzcuVKYXelwEA1KjUz3LB40mIbdNZiXH7NQmKlt99+W0Yx1ACG+FLzQ+0KfTWofmah8xvnLh3jwmMW/kzzGk+q/OFY0mmRJoS+ffuKsaIjHE0JHL8HHnhAqL1rW9q3HwK9PhHx8QnYuXMrSktX44orHhM+Ij/88Am83lJcfvnf8MEHT4kmU1NPEb4ipaVbYTLRk92MDh1OxY8/fozExAhkZvZEaSmQm/uVYBzds2c3vF4HQCLD7g4opQYE+lbBtDAJgf5VIW3amhhoWU4EI4Mw5tugVegRHGiHfnko0VmvXudgw4YvavtIJ1UvMzNT+CFQIK7PwrWQ7x35Lo4kZDMXC/1DAgEnIiIyYDS6UF1dHrolqxoyjdFsw5xvST6oeg36EnNI2Rh2rA0nsSL1tEWDLi/kb6O3AeT9E2koGLmn7ve9VQDm7KJvjt4U+t4QCQSqTVBFUq4/8sytG7SkgFA3ONZPK4IOFUA9JA+k78H5558vXj5uPNw8qIZjjD1PpAxjpDquffv2wjmIIV4k9OGi2Lt3b7EpcXEloQw3fyZT+dvf/nYg9puLLZPyMNyLtkAKF62pXH755cIuSrU1N36qNIkRBYPPPvtMbCYLFy4UWgHiTpsoNyqaZeg0Ra958kpQYOCGtGTJEjFOdKAKLdK9hBqUXtfUKuTm5opr7r77bhGOWrPQdssxO57okpY+XlRJE3tu8MSe48LwUo4T529KSopQbVPwpV2bgi5xp7BGMx2x5G86yP3www8ivJehwaxPgZDjw/E4HgHhIOaKyEirqi5hUqltCdu+D40COe5olSZi/+Yzc4y4zoSFXoaX1kcZMmSIWPPITspQ7pqFYaeRkZ0QE6PAbtejS5cUbNy4AS7XPqgxDpFFlo639LMJjqqAJ9UJ28JkwK2HzgQE4rwi8RUFCCaroiDA8EQWWwcF3iJNCAORXRX4yjX4ihjiD8T2D5l/RU4unQpjlA5Vq6yIi0mD2WxEQUH95oVpdgICE5qYTJT20lBRsVzE/Or1UYiJ6Y+SknkwmZKEZDVx4i2YM+dJBAJ2kYnv5psfwdtvvyLsyHQqMZlS4fHshtkcsn2Gkp4AYEYzhlG5dVC4FtNzlGPkUaDQyYbvqhEidtc/tgyGZbHQsj3Q7YgQ1+h0FkREZMLl2omEhDFo2zaINWvIAAkoyX5oJcZQ7K9bQbC3Hd4ODli/TA31RYHQpkGr0gFmDcFMN9R0DyJ+aieeoy4LT60M4aJzDkl5KDBcd911YiOirZSbPk+kFAjoXEXtAv/Hky2dhMi2yMLTEjc3LpLkSiDTHH0NeNLlCZcaCJ6kWhuzIh0jKRxx4eHmff/99+Nf//qXwIunTp5GKTRxM5kyZYpwuOIJhjS95EkgXnSoIjkPNyRu/lzAwqYItktBYMyYMWIcX375ZXEK/stf/iIIrWqWO+64A6+88orUIBwCDIVfCrGvvvqqCIWjtocaMNqoKeDRPEDGSwpxHA/OawoIdHZjtAm1BRTaqEHj72+//VYQKDFLJYULCtYUDE9MQDh4o2yfTnacC9wwqd1o7oUaLwq/xyoUqCkUfPLJJ6Iqx6I+CgVoCoP0SaA2tGaJjs5G165XoLp6E8UWxMTsxdq1y+H3U+gOQE31irBR06IE6A0K7OfugWm3DcaNkTAoBvhSHFACDNdUoaNPjO+gI7gxFkgcCVRvBlLOAqq3aChfrMCcAmTdpMDxWyh6wbFVgyVDQWBrW/iKyf3jQXV1/URVhZ+/WQkIHTsOEAvkb7+txG23fYa33roLkyb9FQkJKl577R707Xs5Ona0YdGiL3DeeX/Fa69NPTDOTz75FZ599haMH38j5s2bhspKF5555kOsW1eExYsXwuXiou1GUVGI3MQ3qUgsGGpABy3DBdP6OAQyHDDOT4Ia7Ye+MALey/fC/EHa7yaT0RiDrl0ZAvMTRo48Fxs37kVVVQ6czgKRHMVzThEivk6F2skFx6giRM/JENKhzm2Cr40dmhnQM0VqnlmkGjYZbYI5cu/e9cjLW1dn7wdDgOjQw1MQhQMKAVRfU0PAhYj+CFycKCCQNIaaAAoI3Pi5MfFkS4Y5CgD8oYDARYxOP9zcuClRGufmxdNXayrc+J966imxmM+dO1ds3uQ4oKaGDlFhjgmejqie5iZFD2puMhQguCFRg0C8aYZg6BavJU0zNRNcxNg+BQcS8vCERaGOZFUURGqW2vggtKbx4bNSc0AtGoVgvgucr3wf6C3P+U7BjjH11NqQIIlaBQoIDH3kxsW5TYGOQjE1D9dff73YzOg0x42MJEps82QFBAoyFFh4uqWGiZogavQ47lTBUygMRwmR1IkbHZ+BhQIOBRma/EguxGcI0xazTQoxnDckHaJqnfdPgZ/hf4wOoOMe+yFHBw8BDPekyYWY3HfffeLd5vrBOcd7YKghMaV2hYcDmtno7Md5y/eAgg43Y74XnLvHKmETEN+Z4ymM3uGz0gT6R4XkcFzfaqNZ437AU/3BUkPFf6jmpTb8HIc2dXjqIXFYtLUHMi8F8t8HXOQEDKcmqn/LwoE7a1YCQkiC7AOTKRNjxozAzJlvY9Cgs9ChQxoWLWJ4ynaceeYkzJ49DeeffxvefZf55kM5AaZOfQozZ36L9HQjiorykJIyAr16dcGGDZuxffs6VFX9ehhRj2dsCfRuAzSSvSR5ETAGoXMaYVoei0D3ahjKzPB1cSJiXjI078EoAJMpGp06XYTq6lyYTMmIjd2L1at/ODgVDGQhK4Nhqw2GEgsck/bCWGqGYZcVBrsZgWSn6EeN8EOXZxUqKqu1E7zeAiHAtIRiMkUhEPAcpjqlZz0JR5iVjp72LtcfU2ezvstVITJ41qZoZjXEc+Aw/N50R+0NQ+wO5b3R7ydVCihQE/widp/Xi9AwV4i45Y8KNxIKUlw8v/rqq2MuVMdq72T/z8Wa9tXaLIQn21dzup6LPv056DNwJNszNW0sNZNihb3rqYGrWcK+N7U5IdcGKwrpFNopPFIzwXZpoqLJj6YMbt4UICmEUkNF7V04nJLaKQrx1BByTlIYpbDOecBDAIUDXnfovKBgw+gAaqYoqFJQYiZXCgjhBFQUEGg+4SGCc5zERTTD8NBA4ZhCFDWOFFbCWjMKDzS50STGdniooMBzJMK1MC7hCIYjRRTweSZPniyEY7bHZ+EcZ3RC2I+HHAgPPfSQ0P7QdESBgfdIwYptMjKCwovMFnnkmdjsBIQjPUb37kOxefOxs33ZbNFITs7Erl2bhWkiGPx9etHavLCyzokhkJTUA+3axUPT4pGYSH6DaUhN7SkEg1GjLsK6dV+LUNYePUZg6dJZ6N17JAwGPXbtykGXLoOwbNkX8HpdglVz3LjbkZu7HLt354q0z0ztnZBAL/9sLFmyEP36MTZ6CXr1OgPV1SVYu+traNF+6AoiEOjqALw6GAsjEOjghKE0Av5MJ1CtF85btBPqq4zQjCoUhuZdsBcRX6UI8xLpZs1VbcWCvWrVwt/FP4eR4cLHRYiLFk/7jb0xc5Fk3oD6CLM7sdkgrzoZBMIRMkLLqYbCv8N/12w3dPI9eOzk5h7OEnqke+DcPjQT5aHRNuH6/I6mRmoXjnQPNfs80Wf9oygGCicUUuhHQqGDxEjUvlGDQWGEAgi1LcxkSkpymo6oLaAQwfr8TZpmOmY39vt5ovjU93UtQkCob5Bk+3WDwFVXvYTi4pXYvXsPkpIG4uefn8LAgVehoGANhg4lHep7iIiIRrduQ7FsWei0lJo6DLt2rcTgwROwYMFLghGRTlfnnvtXIVBUVJTh2mv/jkWLZqGkpBjjx0/A4sWbMGbM+Zg79ynBQpefvxnTpt194MoszbAAACAASURBVCH8k0qguXQwr4mDd0IRzAuS4e9Ihjcf4FWg9+qgowORUYOu1AT7DXmIfLcNFDIuCtV0PG699V/49NOXsWcPbZJNv1BlzoXwj05rTf8pWs8dJiVlwe2uFhlrW3OhdofRPzQX1Cw0y916663CPESzBYUe+v0wYofCAoUDCgkUjqkVoRmEfjg0D1EzQc0ItRt0FiZPiCy/R0AKCHJWNBgCNB8wnwb9QCZMmIx77pmEJ56Yi5kz3xUZOe+669946KHLMHHizdiy5UdcccVfsXNnPj766BV07z4E69fPFBoElnbtRuCaa6bi8cevRqdOI7Fly0LcdNPzsFoj8M03r+Oaax7DSy/9GYWFOeJ0QIKkcHHekgvzqjj4E7zQ0nywLkiBd0QJUGoC7HoYvDqoLgPcY4sR+XEGgoMrQAdk69yU/U3ohA2WeSHqJZdBPYzIsVS59dClbPIEEJgy5T4sXboCGRkmwQUycuSN0OtV9O/fBa+99m/06jVROF1nZWVj5sxncc45l+P55/98VE3WCdxCs7mEZh46A9NHh/5RdDTloYJ+EzSH0AGVZpjnn39emBcYacKwYLIy0qxCR1MKEbyO5htZmrmAQPY9my0RmqbDxIl/x+ef343ExDT4fB4EgzpUV+8VjIu00bVvfy62bPlE2Lr5Qg0ceBu2bJkuVNaVlWVITAzF9/v9ZNlzITIyQqjKSh1FgidcNTP4VIOuyiRUzTCo0AyArop88gGI0AY6kmoIcb9XG6BGBqHz6BDo5BKf9XYztNKD3qqjR1+BRYs+RHJyF3g8jK5wC9tgkVYAVR+6VjNoodwAVAsaVWimIHTlJmg2FcEEL9Re1Yj4KhNRUXGorAwlamnNJTIyFYMGjcYPP8wAnUP9/tYVTlnbsZdOirVF6vB6dBLlaZNOdXT8o/MtHdvo4DhjxowjnmxPrCcyVcbgllueEOyfmlaOqqp9GD16CpKTh8Jo3CuYKocMORennHI+Nm9eiK+/fh2XXHIPVqz4Gbt2nViuiBO914a67mSJkjhOV111lUxBf4ID1qw0CG3bDhAkHfQhGDPmEsye/Qguuuh++Hx7sXLlMlRWFqJfv95Yt24lpky5Cy+8cBecziKYTAl45pnpePnlJ9G9+zAsWTIbHTsOxpAh40Uc6apV32PcuIniVPi/F0O0sp5JRYIC1rIqHsFUDxRFg6+bE5YvkuEfXi4oXmE3wpBjQ6CHHcb10Qgk+WAoMsEzvBzGVbEwbrcd5vV60UV/xZw5L+Gaa17A/PmvY+TI0UhNzcZTz9wKKBr8Q8sRzPbCuDZKqNFVawC+3hWwzmiDQH879FttQkCJMiXizDP/hM8/fxE+n+MEh15eVp8I0Pudp5emUpjalox+0sRwfCPC0FJGOdDxjxE6tGczpJHEPaT8pb27rguTYDH51Y4da9Ct2wBUVvrRp88QLFnyKTIzO8PjIZNjhaCbb+mFDo/kqCA3iCwNj0CzEhCio5ME1ajFEoX+/YeIFJpdu56CXr26Y8uWJcJDt2PHnliz5jsMGTIFK1bMPHDKPv30a/DbbxtgNtNjuRAJCZmIjIyHXu9GYeEumM1W6HQKtm4NJXLxjy+FsscC/T4zgukeGEoYtWCHcVUM1Gw3NJ0GxaeDfpdVcJjr9pkBpwGaXkWwmxP6AguUUrIcHSwjRtBhzgGDIQ27d69GTEwsIiKisGlTKLQy0K8SuqAeSolJaCkUjx6Bti4YVseKPkmLCo8ORqMZ6emdsWfPNqEhkaXpIUD+fTon0s4pS/NFgF73jAChCpvJex5++GERnUKBgX/T3l0XpV27oSgv3wWHowidOvXF3r1F8Pud8HiqBIOfThdxIH1wXfTXXNr4o2iR5vIMzfk+m5WAEAZar+cLoyAQCApehNjY7rDbc+D3+6DX0zbsB+vQ3h0OXeL3ZnOsyIleWrpB5E4PBLzU5IvC1KmHlfgAUEWeSyVEnESTAn+TLjP8OewYrGihegducP/nGvGqNCeQQisYZDyd9vs+bUEhABzsc3+++/A97KfqbM4TrrXcO81VnJtMKPPll182euIXkioxdE1GMRzfDKTvBjkHGGpI7Qs5KM4991wxnp9++qmwZZ9MufjiBzFz5n+QlUV2Uh/Gjr0BTmcOvN54bN68BHl5C/B//zcLOTkbMW/ei3C5WhefCB0KGWlQm8yKJzMO8tojI9DsBASzOUpssNHRMbDby2AyWeHxuBAbm4yqqiJYrbEiPp556ZlpzmqlT4ITF154JT766C3YbDHCZ8Fmi4LL5YQiKAwDItsfi2YMChrMYAcXdLstUCgY0AfBpYea6YEuz4JgByeUcpM44SuMiWeMvU8RHNz6YqsQPsIpieXEkwiQHIZCAnMvMAa7MQrDwWg//6Pwtsa4r+bWJ80LTEFMYqGTLVFRWbjqqr/h/fefgtkcibS0OOTmbkaXLv1QWlqNsrICnHrqBVi8+HMMHToZmzYtEBE5ramQRZScCiRZkqXhEWhWAkJ8fCrS03uhqsqDiRMvx2efPYv+/c/Hhg0/YvLk+/H55//CkCGj8dNPH6O4OB+xsano2/d0/Prr9+jf/3QsXfoVTjvtZvz22yKMG3c5FiyYg9jYJMGnXVhI5kQdSivXCwHBN7pchLwZcyKF8yGi/ECcH7q1McJXgHH0WrQK86J4BLvboeywQufVw+SMQ8+eZ2DPnpUoKspv+BGVPTZJBEieM378eMFo1xhCAslsSOoj472b3vRISclGVFQCtm9fhf79R2HfvlwkJjK0bztiYjJRUNC6hIJDR4hESxSsGX0gS8Mj0KwEhJiYRBgMNmRkDMTo0efiiy9ewNixt2HDhkU49dQrMHfum+ja1YolS75BcfE+8MUbP/5PWLDgLVx++Z+xY0cp0tI6YOHCNzF58u3YsOEXoX0oLt6O3NytQp9fVRWKt/WProTqBIzFFgR6MvaeUQwqDEsS4BtdAsVhhJbqheWzdAQHVAK5Fuh32gSJT0pKewQCDpSW7m34EZU9NlkEGNNNswM5/huaue3mm28WntxSg9Bkp4e8sSMgQEIj0j+T4EiWhkegWQkIIXh0Iq0pf1TVJJwWHY48Qc/LzZ7J7hjmSJ8C+h2QeIdevzQpqMJPQIXH44TFYhM2RdZjPDvDHQ8rZlVEICiqIvIniN96DQpDES0qFD/DELWQiYEUvPQPCBzih9DwYyl7bCYIUFAgZz659RuqyDDHhkJa9lOXCDAXA51E68KkU5f31VraaoYCwu+HhpOIIYrk32ZIEmOWyTPOpCKMYSbdLVVV5CenoyAFg7CzFr1kqXbl9WHHMjo2sg6/Iwc767ANfs/veApkYdvsg7G2rM+22S5PaXRuYp/8P9XL/J7t0KmJ9djGoQ5jrM/vWIf3yWfiteQQl6VlIkAHLNq0GQ5Z3+GH0sTQMudQS38qrpVc18O5JVr68za152sRAgJjvJmwg5OJyUW4uTL8iFnWqJ4igxYzlzGZCBN5MIkIhQhu8HQgI383JyE9lemdTGGA8bf8zFhnpj2m9zI3a2ZpY+gT6T+pqWBbzOhGGxn7Z7pQ2nq58Pfo0UN8z8xizJpGb2h6PjPDGYvP5xP3QOGAIZqnnHLKgdA4PgOzxTEVsywtFwEKCZxznGv1mcaXGQVJNSujGFruXGqJT3ayREktEZOGfKYWIyDk5OQI2swzzjhDLLSXXHKJyNLFlKXMz04uevJ0c5NmdjNu+Dzh83sm9uC1jF3nhs8kO9zUuUkzPIz1wilSuZCTPIUaCvJ/k8f7lltuwWeffSZio8OFHN/84QZPak+SrFCQIL0nBQ4KNBQy2BaFCqZYpbDC/liPjjlMrUrBhf+XpWUjwHlATRQFyfrwE2C4JYXd+mi7ZY+MfLrGRIDrbGJioqBOlqXhEWgRAgJV+FTdc4Glfbeqqkr8pnmAmztP9PzNEz9P69QQ8PROk0I4NSvNDFTv83tqAliP5oSKigpRL7ywcrIyzIlaB/bB//MzzQFsN1xIpsL++X+qd6kiY/s8wbFd9sNCASCcFpZ/s35YrUaNBe8jXLfhp4fssSERoHmM84tzifOgLkv4HanLNmVbEgGJQMtGoBkKCLT/q4L5kNwFobSnTHVKYiQSH4UcBclvoKrchPm5BmNRyx5T+XTNHAGawZi3nil3w0RfJ/tI0knxZBGU1zcGAtLE0BioH+yzWQkIsbGJ0OutKC8vwNln34FFi2YgOrqtOIUXFzMngQsJCakiP0FVlRM2m0PUdzrLUFXVOAQ1jTu8svfmjAA1Uzz5kzeB2qiTKZdddplgo6tvZ8iTuUd5rUSgJgJpaWlgqOPPP4fo6GVpWASalYAQJkoioUj79r1gt1fi9NNvhMHgxuzZMxAf3xFnnDEeO3ZsxbffPoVJky5DcXE1tm1bifLy1kVR2rDTSPZWHwjQJEWfF+Z0oIkrbIqqj75kmxKBpogAD38UkqlRk6XhEWhWAgLhIdUyaZSDQS8MBjNInnTaaRdj9uw3oNNpgoLZ7fbA4ShFdHScWFSZzlkWiUBzRoDZIWk+Y0TOiRRJtXwiqMlrGhuB9u3bo0+fPvj8888b+1ZaZf9NXkAg/TEdCHU6EzTNf2CQNI0Jj6R/Qaucta34oenISCdXOjIeD22yTNbUiidNM350hpQzVJ3h4bI0PAJNUkDo3XsoNm/eBItFD70+BqmpGXA626OiYrEQChITU1Fauhterx1paVkoLc2F200fBFkkAi0bgZSUFPTq1UuE44YJvWoTuhgmDjseoaJlIymfrjkgQPMC5y55YmRpeASapIAwevR5KCykWaBCRCpcc81D+PLLBSgoWIbIyEzo9RXo2XMi5s9/FV26DMVvv30Ph6Nuw8IafihkjxKB40OAp6sxY8bgu+++Q25u7h9efO2112L69OmSB+H4IJa1GxkBznGme/7kk08a+U5aZ/dNUkDgUERGJiIQcItTUlJSOux2J9zuahiNNrjdZSIRU0lJvsjAGAjUyKPQOsdSPnUrQ+Css87C1KlT8eGHH2LGjBl/yJchmRRb2eRoIY9LRluy0pL0TpaGR6DJCgghbgMFIV+DUGGmRBZNCx7T/0CnIy/CQZ+Fo0Ibzq9UkypBr4USMB1aSMHAemHXB93BOrxX2oap7j2WGpdESGH1cM37MhrNInkUk0gdLAp0Oj1UNdDwM0T22CIQCOcJaREPIx+i1SDA/DT8qY0ZrdWA0oAP2iQFhLi4DERHp8HpjIGqbkNCQjLy8vKRnd0Her0FOTk/IiIiGz7fLqSnd4CqurF3b5kgSgoEqkHhYMKEx/Djj/9GfHw6SksLmVoJyclxCAYVFBfvQtu2naFCxU77amheACYNMGhQqgxQVMA3pgL69ZFQ/DrAHITOYUSggxv63Rao6V4Y8iPgz3LBtikZCQkZiIjQYcKEM/Dee+8dEBAYc85YdjIu5ufnCzpnLtTXXXedoIPetGkT2rRpg9zcIhiNepSW7sF1172MHTvmY8WKZYiOtgrHTJ9Pjy5dzsLatTPE1AgGHYiPb4v4+Djs21cMh2MPMjI6oqgoHz6fjNhowPen2XQlnRSbzVDJGz0EAUmU1LjToUkKCNnZw3Heedfhgw9moXfvDhg3bhKef/5ltGvngdEYiRUrfkJ09AD4fJsxefJfYLX68e67r8BqTUFJyc/Q6yNw882vYebMRzF27A1Yvvw7lJQU4pZbHkZBwRbMmvUcbr75PqGSffnlB8UIBHrb4etbDdOyWOi9CrxDqgCvHkpQgZrhhHlxIvwpfhi2RyDQ0Qnzz/EivXN6ejaGDTsPJSUbUFa2TwgHhYWFIqkTk/BMnDhRxLJTDUx6ZhbmeGAeB9Z97LHH8M9/voz09Exs374BJSV2DBo0EDt3FmPo0NPg9e7FsmU/YMiQKZg/f/r+2RLE4MHjcfbZV+KNN54QvhmXXvp/mDHjObhc0hejcV+pptn7TTfdhGnTpsmTWNMcHnlXR0GAByyun8xRIkvDI9AkBQSGNGZmdsC+faWIiopEdLQNhYV7YTKp0OkMqKoqhc3WAW73bsTGpsNk0mHfvlyYTLHw+UIbZHp6d5SW5iM5uQOcTi8cjn1IS8uAx1MthIWUlCSoqobi4n0h1I0a1HgflGoDFE2BZgtCU/fbEswqdOVGqBEqFLcO4O9qgzA3mEwWREbGMjej4FwguQ159Ol5S7UYE0BRU0Cij3AmvXCuB9Zn4qbc3DxYLFZ06TIaq1fPQVRUAvx+HWw2C4JBD6qryxEdnYzy8j0wm9Ph95eJPhMSElFQsE3wQiQmklAnv+FnkOyxWSAg0z03i2GSNykRaFIINEkBIYSQ5DhoUjNF3kyzRoBES8wkKqmWm/UwtrqbZ9K7bt264dtvv211z94UHrhJCAgJCdn7T+BOaJoFRmMGTKZkVFQsg9VKYpggvF6L+B0VFQ2nM5S5cd++nKaAobwHiUCzQKBv375Yt25ds7hXeZMSASLAtPd06CYxmCwNj0CTEBD6978JPXumYPXqBaisLIHBMArl5YsRGZmCHj0GwmJxYO3a/2/vPqAsK6o1ABcDDGEARZAgCKgoCAgoICBBRJIRE+YsipgzmDFiwpxzxoCooCioCKiAgCBBGbLAoAPMDJLVEXjrq/f2rOJwu/v2nY6v91mrV3ffe06dqn+nf++qOueKsvHGHru5XVm48I46fXDssYdMPGJ5x0RgGiOQJGEaC2+Gdd0CxQsuyCRwMsU+JQjC7NlrlHXXXbssWrSgPh1xmWVWLYsXX1dWXHGNssoqq5U77rilLFz4jzoPP2fOamXWrJXLddddXW66ye6EPBKBRKBfBLbbbrtyyy231HUxeSQCUxUBD0iy0Dvf4ji5EpoSBGFyIci7JwIzBwHP63CstNJK9RXSIz2zY+YgkyOdCgh45oHpYwu6TS2kfk6uVCaEIHgD4+zZy5WVV163XH/9VWX99Tev709YbrlZ5aabFpV11tmw7L3368rhh7+5PhlxtdXWKPPmXfh/D0SaXIDy7onA/0cE1lhjjbL//vuXww47rGy66aZlvfXWKyeddFLddcM521bmnQ925Rx//PFFuXejjTYqxx13XF00tv7669en23mRjt0655xzTv3ek++OPfbY+nyPzTbbrJx44on1c++Q0KZrBYCTTz65fm4RmvNli97ad/rpp9dz/XhWiPvYFqwP6667br1em/q1ww471EqIz+0a0r4562hzzTXXLNtss0057bTTKiEynssuu6y+PjjaR5i0ecIJJ5Rll1227LLLLrUdn2+++eZ1y7LxeZrf+eefX0mVR/9q026lvffeu1x66aXl5ptvLltssUV95LXdSTB1jq3UO++8c23Ta7t33333Mn/+/HL11VdXfK666qq6w0mbZ555ZlmwYEHZa6+9yiWXXFLb1/8bb7yxXHHFFbWfnqcyb9682ua5555b+6cP3lWgLWMUVGFHNs6fO3fukjYvvvjisueee9Y2fa7P+n7RRReVnXbaqVx44YV1DPqgTXL1ObzJRvsqUD7XDjy1uccee9R1As4xjQV72f/2229fPz/77LPr2PVXv/Xfbq5TTjml4ux8Mj7wwAPLkUceWceYx+QjMO4EwdMP99331eW8804sq6xyr3L55WeV3XZ7cll77QeWa66ZW846649lp52eWjbccJ1y9NHfK7ff/p+y7bZ7l7POOrqcffZvJh+h7EEikAgkAolAIjADEZgAgjCrbLLJNuXaa+eXFVa4e5k/f27ZY48Dyk033VxWWeXWcsEFc8vWWz+uzJq1uMybN7csXHhlWbRofll11TnlyisvnIEiySEnAolAIpAIJAKTj8C4E4QYoqkDZTvvGFh++RXrw32WXXZW/X+55WbXhxzNmbNWufbav3TeQzD5IGUPEoFEIBFIBBKBmYbAGBKEZcrqq69dbrhhQVl++XuULbd8fJkz59/l1FN/XjbYYKuyYMHcOg+oknDQQV8shx764rLCCnPKzTcvutMLmWaaAHK8iUAikAgkAonAVERgzAiC1y/vuuvTyzHHfK7suOMBZeHCM8ueez6vHH74F8rBB7+pHHXUD8tWW+1Qjjjip+WWW1YrixefXrbbbt9yxhlH1mca5JEIJAKJQCKQCCQCUweBMSMIq6++VllxxdXK1VdfVjbbbJ9y662LylprPbScccZXy377HVzmz7+kvlfg4otvKPvs85By+eVnlLlzLyrXX7+w3HjjoqmDSPYkEUgEEoFEIBFIBMqYEYQWSzsX/vc93suVxYv/VWbPXqn+f9tti8ttt91RVl55hfpM+FtvzVcTpw4mAolAIpAIJAJTEYFxIQhTcaDZp0QgEUgEEoFEIBHoH4EkCP1jlWcmAolAIpAIJAIzBoEkCDNG1DnQRCARSAQSgUSgfwSSIPSPVZ6ZCCQCiUAikAjMGASSIMwYUedAE4FEIBFIBBKB/hFIgtA/VnlmIpAIJAKJQCIwYxBIgjBjRJ0DTQQSgUQgEUgE+kcgCUL/WOWZiUAikAgkAonAjEEgCcKMEXUONBFIBBKBRCAR6B+BJAj9Y5VnJgKJQCKQCCQCMwaBJAgzRtQ50EQgEUgEEoFEoH8EkiD0j1WemQgkAolAIpAIzBgEkiDMGFHnQBOBRCARSAQSgf4RSILQP1Z5ZiKQCCQCiUAiMGMQSIIwY0SdA00EEoFEIBFIBPpHIAlC/1jlmYlAIpAIJAKJwIxBIAnCjBF1DjQRSAQSgUQgEegfgSQI/WOVZyYCiUAikAgkAjMGgSQIM0bUOdBEIBFIBBKBRKB/BJIg9I9VnpkIJAKJQCKQCMwYBJIgzBhR50ATgUQgEUgEEoH+ERiYIKy22mpl9dVX73mnK6+8stzrXvcqN998c7nuuuv6781Snnn3u9+9rLfeemXevHnl+uuvX8rW8vJEIBFIBBKBRGDmIjAwQdhoo43K/vvvXwPy9773vXLHHXeUZZZZpjz+8Y8vb3zjG8tLX/rSMnfu3HLMMcdMCLpbb711eeADH1ge+tCHlmuuuaZ84AMfqH0a7th1112XfH366aeXFVdcsTzoQQ+qnyE2+v+whz2snHjiiUM2ow2E5NJLL+15Dkzud7/71e8uvvjigbHQzjbbbFNuvPHGcsEFFwzczqAXPvWpTy0/+MEPBr18xOuMzz1uuOGG8rvf/a7cdNNNI14zE0+gS7fffnu57LLLxnT4K620Utlrr73KT3/601G1u+2229ZE4Ve/+lXZZZddyhVXXFEuv/zyUbXRnrzGGmuUPfbYoyxcuLD8+te/Hridybhw1VVXrf7i2GOPHdfbz5o1q/o6Cdjf/va3cb1Xt3F+dtNNNy3z588vJ5xwwoTe283uf//7Vz948sknV13rHve9733LuuuuW/7whz+UBzzgAWXLLbcsRxxxxJLT+HgxwgG/s846q+y8885LvufHtdE9JJz//e9/C/285ZZbyhlnnHGnUyTEG2+8cVmwYEE9hz9znH/++eXaa68dE5zmzJlT2Bv/D/+JOAYmCDr3qle9qjzmMY8p++yzzxKCAGzgrbXWWhXIsQJnJDBe/epXl5/85CfltttuK+94xzvKpz71qXLuuecOe9kOO+xQXv/615cf/ehH9Wf55Zcvj3rUo6rxIT1XXXVVedvb3lbe+ta3DtnOt771rfKd73yn/PKXv+x5DkV55CMfWTjgo48+eqRhDPu9vjKKH/7wh0vVziAX//znP6+yHq/jxS9+cfnzn/9ctttuu2r8/s7jrgg8+tGPLosXL64BeSwP+vmVr3ylPPOZzxxVs+yDrfMF7373u6sdnX322aNqoz35Na95TXXuT3nKU6rtGetUP9i4ZERVVWLyspe9bFy7jCA84QlPqGR6IknUJptsUh784AdXUkJOT3/608d1nL0af+9731tUqC+66KLy29/+9i5JIILG377nPe8p++23X3nOc55Tk9Y4+PiHP/zhZe+99y7f/e53q58RByS7fBwSsMUWW5SjjjqqPOlJT6p29q9//au2edxxx9XzVllllfLCF75wSZvk/+lPf7ompmKB433ve18lUOLDWCU7G2ywQXnzm99cvvSlL5UzzzxzQrBfKoLwkpe8pIKIIDgAteyyy1aQ/XYI2I6VV165sr9LLrmkL8AYAUZOoLIJ/2NoWJ+MvXs4L5zJRz/60VrFcG+MUcb1n//85y7XrL322uVzn/tc+cIXvrCE9VMerJOzRHDadntJ5PDDDy/f+MY3hiQIrtltt92q86B0S3O86U1vqsY5npn8UP1bYYUVyr///e+l6f6Q19KbD3/4w8X4wtmSWR53RaBrV2OJ0ezZs3vayXD3EChkXAgCW2Fzg8qO3bHb5z3vedV/TAdyIJgImgKBYxAMB5HhWOrBYYcdVhOlkQ7BV6YsIx9PfzBUPwR81aUgYBFb2vNV2J71rGdVsvrYxz62HHDAAeVxj3vcnZoks6c97WnlE5/4RM34VRyc/+1vf7usv/761b+KN294wxvK1772tfKPf/yjbLjhhmW55Zarn6meiw+RqJHFV7/61Uo2xBJxg6937Y9//OORYO37+2lLEDgHxyMe8Yhy5JFH1iwQc2M0phhMQyATH/rQh8pHPvKRWnIHIGbFubzzne8sm222WRXmJz/5yXLggQfWz88777xyj3vco7Iz1xOiSgH2GEwt0BVY7nnPe5ZnP/vZlWHK6JXjMcV99923vO51r6tMsD0QhM9+9rNVuJGRKZOqIFAAberLxz72seqwlGCRoQsvvLCyT8Tl+9//fvnrX/9aCdA///nPcuihh95F4C1BUPbSDowoJFaujyoWFA7hkEHBDkM35SF4GvNQBME5L3jBC2qVQn+U6GGmT5gsh2ssn/nMZypZcW8Hlr3mmmvWdv/yl7/U0htyx8FjyqaJlLU+//nP1z74X5sc4hOf+MR6HmfBIK3/0I4MSvmLrPSBHIzJweiMLzFPDwAAIABJREFUn8HSCYz8nHPOqXiQEfJoqifOd81DHvKQei8Ey+cIkn6b9vn9739fDj744PrZBz/4wZpxymBVI8iP/jgQU47FWHbcccfyrne9q1aX6IT+0SmkUoCSTThPW231C37PeMYzKjl98pOfXPVBP5Qe6aKxKr3Sa1n4ve9976oX5GG6Smk2cEJKOZPdd9+9VmU4FE6aw+ME2QKnpArGye20005LdJt+Is6w22qrrer3Svp0SFZDfqp4/uf49BGuMd2m36Zy3FO7yqFvectbqi5/8YtfrG3AizwEAY6RDftZZ511KlYCt2xLpecVr3hFtWefu0Z7HKO/6YeSKCych0CQp+x30aJF5eMf//iSNUqcLrJBP0ztwcj18DCO0047rfaBHvAjxx9/fJUTuTnIR7/JRiLBrpWP+Q/jJRtjZMtwZwMqhHyG/qrM+YzsBA2f8R/syhSKwPH2t7+9vPKVr6w2Q64yWOcZFxuhu/TfOCQa+s4Wyf6b3/xmLTeTmTbJEN6uaQkVf8DOjJMvNC1pvPSU/tB38lZJuvXWW2sf+DzjE8DoEFslqz333LP2NfDgVwR4/eMLjYGuPf/5z6/6qBrhOn6AfNhwHOxeQKUT7EI/tKPvKkgyezbGv7ARdghfcYAub7/99jWwfv3rX6/27hw20x7kR4/IlU+GXRwqSuEH+Gpy5YfoK8ydy4eSEzxGIghs2f3phDGTLX8c08nGGQTh73//+5J+kDN7hrVKNRnw1TBXZfC9z/gBY1DV7nXQKef+4he/qDKBz89+9rOKmaSb/yUHWJERfOkjv6RSQa7i0Je//OX6+XgdY1JBCBAoNVAESoaq44yaE+QoOGYlEo6JY6OYQRAEZYYBaAFeGeXlL395zWg4EoBzuAyPMWirPQQfzl+wdA6FFzR8znn0YptBEChWKIYAgakJMAyfIRAK58HZKle96EUvqiWeU045pRoClihQRlDv3qslCEiA+1FumJjSOOSQQ6ojcD2n4X7IEsMS9J3HwSIr3QqCQEvRKRWlQQg4QZUTMoDdfe5znxogGChnbf4a1sgcAxewOS2OjLJSSH0w1+fgaOFv7M5lhGTEmXIqAoZrGRRSw4DIndG1clKa4wBgZR5NEIAjw0SsBOxu9gkPhnj11VfX8+iaoGwsKjeCOgyNGw6nnnpqJTscUMzTccoIJnIqe4CVaSNEgk7RVwRHoBOc4MxwYdcSUEYrwNLNgw46qDpRjhvx0n/BmUGTsXY4cf2DHWw4M8Gbc/C9bFmgJSdO33UCK2JAl+mEfguC2jVedsNZ0zsOGWGg5wgGosKZ0R19ohva09fQSXqhH2RE/r5TqjYmP2QqsNBx/bvb3e5WbUDb+smJkT8b5Jh9BjfBglPm4GRRnLnAwR+QG0emPxwr+QmeCJ9xxGHM9EMfOG399L3Aaox+IzYIL33dfPPNa4B0sBMYI5zOg4egIkDJ6uFCfvrjugiMMknY+/79739/HScC4X/Bn07RQb4AZsgKwuVe2rYGyfidS4e0IcOlW+Svfb/1G6kTlCVE9JBsjLGtlDiHnxFk6DwdQ3bYEdtyLn2ALxx/85vfVIwQJvpBJmTAn5Gh6/izSNi04RrEiK0L+sZHjuSqv/wTzLrrXNoKAh10Pz/8PH+mb/QOkaFDyBS/xR7pDV2XncOYjpBhe/if/OgJvaabrT/gs9yHfsNd1QOGbEMcQT6MqR+CQIfoAoJAT/keY+mHIJC9exkrP8Mm+UH22C9BgC/Z8/HW/cCH/SBfdIwfE4N8FwkVnSJPuoYc8E9seDynnMeEIMQUA6VRhhaQOWEVAoGCATEKgYtiEwIlHY4gUCCK4OBIKHE7Lz3c7ggBg8Ap6XBHEATOKyoIFI/ziAqCQOlHkOGkKCMHJqPH/lUSZAcCBeU3JiQjFkAK/i1BsA6BE3EgL1i9QEwJ/M24BRoKDDsGwvAYGYPrEgSGzSDg6pB1CN6UCMESUBkS58hJaE9wcm8BNDL0mHvmODhXhs2ZaMf99QVBcJ7+cR7kzJEKMIzNNZwyIxX8sWLOJg7BRrYqmLuGnJA5St+LIMiyBPXQA3KQYQo4QRA4WgSUcXGk+tAlGc4hAzqEcJITJ8ugXaMv+i0rQYZgI4vkdIzB+DkPWfkf//jHWplARDkGjkJg9bf+Ih70hH5ycgIep4cUvPa1r12yeInzjuzc/RA4OoWcRJYsqHCKHDyHQdcEG/cRFGQY8IOdPrAp63/chx6QDXIl0MchQHPg7qUCIGuDH2cDV7okEzIeWYtAxW7J3N8R0PUXueLU2XesQeDwyJ4+mw4UuAQEJBo5RXpgS3focpudtQQBAdE2OWmTjQhQHCMZd8vGiA+SQrc5VaTMONkAXUUC4Myhk7UgxEeoZpAVIoeUcNT6Zrz6CgNJizZklc997nOrE3cdW28JAozpE4Lg3vQbnvwjnRT82T/9sxiOLLvrm8jT+PgjmLmXQGQcApMkAGFr16LQTQsj6QfM2KmqAzkiOAK45IP8YMmWyU8VgR64nh9BsvRdgIIXotoeLUFAmOgYu9MmQu2eCBs71yZfIaip1tEDcjEWOPAX7Ty++4gfrtFP9+Lvxosg8G3GFxUE8anfCkIka/SEzvBf/NJoCILx8kniSciXvSOff/rTnyqm/DD/6z5+VLkk2OKVxIpfhw87Ep/4MTKhu2N1jClBaJ1QSxAInlFSYkppIBR0NASBksumHJzDcAv+gMVpMqJ+CILAESuPGSjn3yUI2hGgOAkGJlAQRJcgcAiE6TyHsbYEQcBW8hSonCeYaodz46QEesGPU2dwDFjQVnWhhF2CIAhxdC1BCGNECAQAzlLgcF/kQWAQKGT0SJRr28VpnAo5KdvFqvaWIFBejJkMsW+kUNBXGlQKVmbG9GUjrbJyHDIWis9pcGDuPxRBgA8DgQVHyUGqhujT0hAEzgtR4Uw5dAGCM5dl0wNVAkGao8L0jZPx0teWICAPMkIEVkAVgFRNomStWiBQIHeCn78d9Fj2J5MVwB3w1xYnTZ7wcx6yShamb5AH1aThCILg4z70wlg4bn0fiiAgKeQ/HEEgH/izqxgDciK4RwWhX4JgWgixdgjSsI/+dQmC+wpAdAXJM4U5FEHQHhKBWMObXSJ2yCV70Ab9hJ0xdAmC/+kj4uZgx3S+JQicL7J30kkn1SAtwI2WINBb7Qj+flSv2oOfRFL1W6WNPY2GINBRwZUOBkGQqCGyMcVh/LDxPbJGB8kRgRP4+VrXS3za9U4jEQSL8pBjOgx/9xkNQaD/9JCMkBw6NV4EoV2DIMjTM0S2nwoC0s72kQqEWawQM4YjCIidONDuqJA0GCO/Dyd+Vx/oq/gAS76P/xFDETekIAgCMifOqFqQG6zGakFk6OTABIEDxWY4LI6WA4lFbIJGlJplkJycgQoqWLkgpXyGWTNIIAVZENhlHjJv7WN4AqPgLLt2HQUGSnu4j9Icg9OWUhuHrx+cL4Xg8NvDtAEHIGAwBEGToydsBgJ8QnCOQC5ARf8ITT8x4ZiiwEg5DkE9DsEGWRKMGY2A5Dp/IzqRQeinYKpkBFtKiBhQPuVYmZT7m39i7NqIQ7WFUgn88ISdw3wmbJEPDgFbNR44yfqMlzEzRsEnsjkGavyclYMB+V+fKDPHSJkppXOVuGRwPuPYtGW8ZNAezsG+EQyBQpBGGMiFrGGLALXbU7VJZzhTmbFASW7RB32S3SF5Mj2kShvtgkrBxVhiOy6s4en+gruKgODE+HxOf+HSXecCW/eS/TlfYBMw9FGFxriM3XeIgiDPAasMxWInGa4MQabA0DkkfY0tV+xJtUDfECklVI6TEydHmWtkaOzH1I6MnY6a8pKd0Xf3hAOnIQiH44gKgs/sNkAOBCE6S39hIHsXaDlrshFIBKkYE7ma1yZDts9xIYgyPsQnKgjwYfP0lSONyqJxcZjIc1Tu2BqShtTqA38iwBiD6Sg2oJ/u5Rzkqa0+uF5f+AY4sH2YIko+R7qQbDJS4Yt5Z7qvH0g0W3Mv+gYfFTY6F2sFVGn0SwCnQ6oJCCvHT4foBbn5YfM+hwm7o9N8jDboHLzJxj1aXUVK6BAyJEuEJ99H/j5X5fI/38GmBRz+y/35FOe4vwBG5wV5mOgPPeWHY02CvrMr46aLgpBx87Nkzk/HLgnkF1bwd08+Sj+QHeSLz3Q/WCFN9Aymxo+w0RVjjyydneqne8Thu9jiTO/pYPhs41ZFUdWjH/5XieVvJRmmd/hBNqfSp+rlt6SIr+A3HfwxbLWvr3DjT+iHccWiQkSOb5GMOEdccU8VTf7V/4I6eRkD8mTccCRrfl4yyB4d7Ay2ZNUe2uBr2Iz7qXDpA7ydy7/QZ2sm2LixqxSq3vG1SPR4LR7Xz4EJgtJ07B9liIBifA5ZuGzDobTFMGWy7dw8Nkv5KC72DkzncI4xb8h4nGMejpM3Nyj74Ci68/wCH6UkOHNdiIWDw7W+gVF2Sy+UN/arMiRBTX8cnIQg6ntZo0yS8sXBIBi8tvVTsJQ5u7+24pC1UFDtCFBBYAhVOTP6iUQZZ8ybM0SMFMvknAV7RqsdSifQxBGlT0pFucIYfK/PAgFn5FpOmIPA9t3bPQQcyhsrsV0n4FF2ByPjUCkvOTFI/dGHMADnceiCqr4LjL1WocODHDkn98OUOVJYh2G1siUTgRBBgyv8GLl+0xefkQEjQ15ci2SFLuoX3TEGwQZGHKJz6amDYyEP+MrqObNe24gQBNe7F6eHlHE0pgAQV4HcAR9BFj6MGfaci6yUsSMIPkN8jU07nBBCqNxvzIgnrPQbLsifsm9UqMiZ0/GdIOKaqIAYh2sdPtfXqAQFQYA/fXNv/RTE6IW2yJkdCGKCPLy0LYDQCzqqgscGBFt9YFvapmPGAnOfCx6wFnSQAbKXqZoubBeh0RnkHLba4mD9rQpI9sZLV2DLzvRdQGltQIDynYOOGDunKjvWhj6rxkRA0U/ydsBbkHEuGZG/YEveSAGfQmZIAf2g/5w34uUaU4x0EgbkhAybwkQEBTW4CODk12bF+kAGcdAx41YpgQ9yo02Ya1Mf+SMEAL6CCGKn/KyfyDrdR1KRSZ/HAmXn0zHJEtsXENkoPOBveoA86So7C33WN/cWzLRFn/grf7sXuTo/Flzz0fooyJIp3Ym5fn7B/7AR/JGGOPgANsm/0y3yCmLLR/jMPemOKo6gCStyMDa4I8f+psN0gc6SAfk5nG8cDpjyFeQccYCuu16/+TyH6iv7i7gGMwE9bMjaDTbnQDD5JXrTHuxIH1q/5Hs+ANE1Triz2yBNdJYMfY9s6RdbQnq1rw/jvdNnYIJwp9GP8A/jxvaitBhlvzbTHk17k3EuRsqYZUNKmZwpgjCW8z2TMa6ZcE/BigEjAt2dLKMZP+cdUwyjuW4izxUYODeVEM5DMEAGw9YQWUGKI+P0eh2w4phkJxz6dDgQaRUk1QlVHkRGpq+SMlUOfkOmqmoYCzUlQEM9ZK3ffiMeCEqbmNADGbQK3UQ+zbbfPud50wOBCSEIshMsjXPG/JUq/Z5OBzaqzIktMkhGvTTBZjqNfbr3VXaoyoKFy5p67WgZaYxIhlXVgq6yZlulGenaifxehiRLl3Gp5tBTJeaYtpHNCvyIremedqpKP2Wo5mNleDIZ01rT4ZBRqRaq6CAFqgCC8KDPZBiPMcvCVVZND6hCqCQt7YPkkFZVKHKUjRu7rNl0Al1QkUUS8kgEBkFgQgjCIB3LaxKBRCARSAQSgURg8hCYlgTBvKFFTjIjWY5qhKzQnI21AuP1fHLzVOaArJ/o9WTGyRPj2N/ZHK65fdi2i8HG/k79tUiuSrQyQwsjzfGbC21X6PfXUn9nyaBVHejXSO/06K/FyTnLGMjRXHSvqp15VbYTC7Emopd2Tlj3Yu54Mg9rFCxQM/9rOqI7Xcjezc37bQ1FHoMhoPrGJ4/1CvvhemOdi4rNVJ7Gthiafo0mnlgcav2HNTITEYOmFUFACuK9DxahWLwDLItZLFBRVuXY2733g6n0na8SLGORn9W3Vmz/f5/Xs1jGOC0+bRcitsjAZTTleo6WzAZZWCPQWXVsZbNFgdaxKKN2F/2Mhby1YUUy47X6fjqvM0GarXy2oE8QbA8L4AQ+BML6oKHWJIwVptGOxcGmMuymmczD4mHk16Iv6xe6Ww7pq4WHdM+C4ul6TNTjn4fCx9Scadl2x8KgWJKJ6aSR/A4/YarFQr6pelgnQvesjer37cMSVLuZ7K7p95qlGf+0IQgUw1oGc3hWmloVK9iYb+XkZJPm3AStsWSq2iRI7Zt3tqPA9p7ptoZitEqCIHCaVr8P9XY6+4C7T7Qc7j7Yr6A06JyonShWLpO7thjISI6i7Y/FeVZ597MtSGYtC0E2x5sgtDtGRiunkc5HcmxtQxC6OzNgYREjHUeAu9uAR2p70O8RBCu2R6M7g95ruOviwVrISqtLFmhaJc/GJR2+H+qRuePRr7Fu08JqW78HPaxV6T4WeTRtWUCq2jsWdmSXhbVfI73Mza42C3IH9TWjGd+g56pw+LHNtt+1MqrnCP+UJwgCtn2bDMe+UPsyZXjKsRYkykrsXpB9+kxGZsuWFdWxJ9q2GA7fdhKDHo4RqQzYdidAd9+cqC/uYUufRYQcu9KhsqlFaba1KOMIdFZ427Nqzz1Ga8GQIOMz7dibG0EHU/W9TEOFwlPxsD0LgTgO+8GtBudgbX+y9dMqaluU2gPBsMjRIipbf7SjNM4R2WJk1TVF9hksEBCfYd0yZGN3ruvj4Um9lNIWOecxRluk/M/RCQ52YdhWqOTmmQPw0tfuKnXOkPLpr0BMhtqw3x4rtxXK1iAL4GRWFkaRqe2TCJxV/u4DS9cgBCo89MB1jNveaW3GoTKkIiBo+JycBHNbuYxfJUNQD4IgM7AP3jYs2wvha3uTMqYtX0p3tsfpgy22troZj2dCIJPu0Tr82HpJN+Bk219LEExp0APbeum4bU/0i/7qs/vD1Da7IFb6S+d9BmMPPZHNy0j1y/V0UDWEM7OYEI7IrS2GdEGb7SET1Ec4wxKmMgrbv+i9/nhOhPsp4cvQVWvg1X0DnICBHCC+8fwE9mzblW1msQXVinsL6jwYydijcqZNCwLteGAD8VwMC5Dd29Y9BISOwMdzA+gS2bqPKSLyincwdIkeR6iP7mMHFLmxUXjTC0GHrdJ1f/NBbNQ4Odw4YE2/PEeAzqsE0GHkFnZs1VjjDZQSEIQKOYCLCkO8ytcCT8FSaZfc+Cz9ojP6j3CQs4wZsXQe/8ZftfqmHYsLjYWMYEbPPdvF//Cn6/H4cwFeX9ogIrBoW8A0Zt/xc/Bmb/QM/uyAHdIX+NM194K7nS4wtr3Q/n6+ga7bacHnhJ/V19iW3r49En7IrbFbzEoH+UXyoN/sDY6en2AxJt+gP2zRtINkjlzYDD0jF7qtn+4Tvog+eY6Igy8wXaYyQDdsiad/dpS1U6HGaSzGQQ70k77yoXSen+CH6QeZxYFUsEs+IrYX8/92rcFQv8IfsG/xgL9R2Y5n/tBTmMHV33SKfFzPDvgGdoq82yIrHrJ1vtE47T6Jh+XxqzDTZ/anTXpHRnQeduKia9mVBdndV1EPSmBcN3AFgYIyMkZufyejUI5WpuNcOW+BRhYq0FJEjppgBCaKDFQreePZ8EonQx3AtI3HtaG4hGvPKUVh4ICkTAIr0BiVfcIMB3BWnyuzcqQqDxyxQMMZu0Yg5XQYQxwcIyWkNAyLMCmFVcPOtbNB4OTYfe9v447VycbOqZs/p9Tux9FTBNdSTuNWEaFAcHO+7ygVY3GOYKAvAh6lGepwrkzRA3goEkfjf4YFA0RGIKLw9kRzbpE5UnROicPkeDke/XQuuTov+ozIwJsToOzIGEIBazLiACi1eWb79VUiOBNj72aOdEPgscuAcXAqZMTgPKzH0wA5dmNBBHzHuI2JHspI4cZAyFepnD7ST9+7hkyc76e7bkFb5MmRMFhjFNSigqAP7o/0cryIF0dGHhwP0kre7snQyZkechLGTb5K+HTdw16cR5+1ITggh/rAscY+fI6qmyXB3P3j6Z300v90zn0Fa8FHfzhcbZIdR0Im3QoCXXY/MtEncjd1Z/xsSt/ZHB2MF2nFi2EQOA4UkXUv17qGsxY04e2e8ex/zht5jaoFbNlUPCa6nf7gGwQsYxJE9IHtIhV0jr6RtYyUXRg/2+GMEcZ4iiIbMX7nCvoCmDZVIMlCQPZd9xDstKHPfBmMBVM/EiEOmNMXyJEschKg6KAAL7AhEkgvOXo+CCzayhX86DHZCPSCLH2PhxnRHTbBv2qH74StAz7a1DZfRf/1Od4vgbzTR/6Pr2CjfAo7dF/twVGC5DxjorMw4p/gA1sJHWKDoLHd9iAXY3QP+sPmkDpyIlN+Kt4h4zPfIwjugQyz9Xh1Mz8hBugXf06vYc3u7KhBzNmeoM+fw1Jb/IH2+Em62E43Opd9CqTaQ0rYGd8jAYAzPZKstLvR6CWfSOcDW3i4P9+kPT/6hyjwBWKccySjYiCCRtfphu/JGP7uY1cJO4EbvSJ79qN/9Nh4YYesxTspkG1JI/2ge0EQkANjEI9gyt+JSWN5DEwQdMJgZLSCowwr3nIGHJ95YhUgKVAMnpAMguECLx77y/EMt2d5KIJAEThjSoy1UjDGTaAqGQxXYIuXAgl4grY+cS4MjSOQ2VBajqnNbrsEIaYYBBnOjhNmgJH9MRwOg6OKo33UsoVRWDPj4NDigSqcB6XUd04bNjDUR4aA8GibUxhuPhQGFBIuFE8lwUOfKKfgAfdwxtrX1wiY5KWvZMZBIBuUnWw5CoTM/TlGxh8EgR74zBh8j6wxmnh8M4cmkxWEehEEfUZc9FMwEKxVVsiFcccbHqOCICtgJIw7Hpgk+3AfzkIGjejQCQGPwQ9HEOgIdu4gDw9+kZkFQRAotRF6A399RoLoE5zgy0DJVqAQQGBEftqEDQyQUkEE5hxnSxCcx4GTk8AQfQo9UqlCKgRlWNJdRJeO0ku4wJHDlWVzZOxG8BA0hiIIxsnRIk/0FtHQtmAqKw6yGv0gQwHDmOKhQBwUeQlCHCv86QDdCD1wHb1il3wFZ63fsrL2tbhReWJbDo4RHnwFEsVGBG4Vw3hHBN1hHwIeshoLuJBPgRNe9Ne44Kcq0i9BcE/6LyDC01gFdLrlnjAQdMJWJAP0TeDmxI1XUGunJbWjAikgs1VTZgIMYiogINrs1DVBBGLxtYoG2fCXdN33ZC7gw5texqPXgyD4TVf4YbKji6ogPqPfZCVBYv/6yjfEeiG+p0sQYEkvnI9ssQOEh35LAj1ECF7Goa8CG8wRMkRHII1Hy0tm4j0ukhSEmj+Bm37phzFKDOlxEAR6LYjy3Wy2rUK1UwzuI8DSN+Pyt2TJ0euhe0gInMQV+qmCE77X+RIn1Ygga3TNZ0hqEAQ+kwzibbz6hgz4n67AlA9hJ2IBObM/yZD+8jeSCWSC3fINkjTnBUFgf/SbzToPvnRxLI8xJQhAoCSMgtOlVJTFALAp5REAYH+MyE+8DIjzEzyH2heMrVEIbLfdy94qQksQgKRtCoEdu46gOYoI3oxRVjIIQRDE9IMTY5SUlkFzfEpPlKUXQYANgsQoGCdFUElhcPEqVEZHKRiE/lNYBhTZGxxldL0O7cRDU2AqUHFGjBnxwMYZLNIEf44iVpO3gcF9W4KAccfTGzkgQSWcj/Ejfqog7s/ZYbUCJmcQU0Du24sgCOxRzUBYOBxEhjMgL4QDOehFEGDIScRrthELhjQagkCOyEQEUE7OWIIgCF4Cd0yB0Rn6GASBo2esQRAQR0TVGOJ1xIKezHI4ggA3WW6UPdlQ+/AbAZFucW50Wp96EQTZB5JO3v0QBE4ZQUCOgyAgqBwXx2eapN3JwVnCl9MnLw48HnWMzMEfOdEepyxYapeTF9DZ7HAEIcr3AoX7whPRFSCDIMDBlB5CGK+sZg9sib5ENqmfHDWHri0VDe3I5EZLEDhswRlBIO94kmM8gZJcBIYuQTBe/iGemhp2i3yxY/hpD9GLR1eTB4JoLGzD1E8kUCpJ9JV/gwu9Qe7ZvcqDPviO/gxFEMgCcYsnXMKCrgngfBo/TIf1LV721vobZBk5J1fXCNJsPQiCEjmCNBxBQCIQ2pYgxFSgDJveyNod9Ni9kMUgCGwQ+UO0fSZAxtHGBZUN/eCjkEN6zYb5DL6mewRBiClUfXTw3fF4a9UVSQESEW9DHY4gsGn+wjX6Kxkl+yAI9JX/hSk9YsN8PluKJ9xKKP0fBIE/YgdIgr6JsWN9LDVB4EAMmkOSOWBelMegKAgwsB4KH+VshipLkkkBQ4BCJqKsKAPuPsDFwGVF2qQMESA5ScREP6wI1S5F9xkH4icen+leDELf9IsSKW35TBYTJW2Px42DY6eo+oad+S0gMmhGSDgcKEVltJwIxWvL2AI+I2dEEdAEew5choxEMXT9FqxCMfTBeT6TIXBISkocp+qAjKrXS6sYKWcT5T7VDfe2vYzjttgyshX3jLlNBqttGTAnKshjuqoxsJXtwpNzFeg5Iwwf04eTfiuPkQ1HLPBwPBQb9pyVPjBUyh27GaJaYG4ReRJ4ZPAYtfvHm+q0QU8EF/3kYDkNnyMT+sSozSvTQwRHhsUh0D+YmQ5DjtotdnBCMjhkYwrHhCDQFT9IpPtxNIgqOcajnuNVzwgCQqPCILuUfdA97J9T1y+ByrhgzhG7BsEgB3PSbEkGDCsED2mMQwkWyUCyVSroHrmoVNAhQYQdkhs94bA4L+Nja+2URbxrQgbL6dBbBF1VhrzYqIBE59hI96FDnBGM4UXmDjYgkyc/99cn7eozLMhUe7J4zp182BN9asepLfJEDGTTcDdWeq0tDlwQNF7yJFtJh2BqXLHuSTvuQ2/ZJmfOscvy6Bp/RJbdRWJsRFsWTgvqAAARkUlEQVQ+F7Bcp4JAL/zNVmES6x3oNIcvINN7GWCU/WFKZ+OtlK0Dj1e18wOCEH0jJ/5Ttons0HPfmQ7SZ4egjfQInnyR9tmZgB8vA3J/Y2a7MmZtaE+pO6Y+6Cpd0kfrBNyLT0RE6Rfd4uPgr30+LaY5YjqRPPk/+sE/kgsdggHfFivuJWgIDPtxHn8b9o308R0wFUT1Wbt0gB2F7+A3yJ5ekAdd5xv0kz9u/Ta9pCtkpE3ELrDxP6xMYXQfeEZfws7ZIr3lb/gOmIsR+sEf6IeEC86xhkN/6TxMYCFB8x17Z1fIkH6LTx71zIb4J3ajuiCJIlPJmH4i2OIdPPk6fpnf0B9xC/Fga3S+u0tpLMjCUhMEwsbuGI3BA5ghySQ4bAEO0PG2PJ1WChVUAMbRmmsjiHj2vExxqKcUap8iUSpOjGPgRDgG9yUIzoYxyUQ48VAcgiYQyu1++md6gHIB3/kEQ5Fixa1zGCJlY9CcvbEas8zBfTgpyiMIEGZk+m0FQTmeEck+jE87jFZpiHOBBeNjwJGt6S+FwfYZloBK4ZW0OEyOvdc2PA5GRmHcStJ+R/mNEsYLagTE7op+FSDfC7SwECSwW0oP83gplLEhcr5X3mPgnCcyEpkOZ8P5GJ+2/E25OaW23K3yw8hhwWjJUjAwPkwacSEHfVPZkAUYBx0RZGRscGMk9EHwioxLUIKHaSPGxKAFrnabqn5xGJwI58AR0iWZsnJ2GKUxc1wMmwOFabxrgGzi1bGu4+gFbnoPf/agiqP6A6N4HTjsZID6yfkJtsgkHeVY2oM+wFmAc55x0VNy4UwF3ngfA1KOPMOQc+Y82uqcvgjoxqpCwkHJZmCAoCCeAglb5fToWYuZe7uf8cAdWUXg6Rs/INhJGNw3FoPRA/KLp6oianRGn8mxXeXOlsiEbARy9iIQ0ksBiN3CXJv8huCHgHHa3W20sfCO/cHOeUhFPPdeib1drKuyyC/BlL/gU+gPm9IGAsivIOHIMJ0Q0OmcdgQd2PIpZEuf6Twd6K5Wp2fGx5e4NrZa8jfIDHnEGpdWF8hcoEFO4OE8RENlSZIED9gLoAiittmLChUZ0C0+h7wEPPbNr5E9PdBPtuAagU4Wru2ootFx8iA/fUbkYWqsiBIfwmZdT2ZhSypTcIINAouoS6DotXsLeq53H9dLGMQYMqLTEhF65n+JhSSEP/B/9x0uZMdm6CGfHtiTDdtsq3OBreyczsGObum3PuiPe+iL8SCR7MkY9EvFhE92H76e/YgJxiBGGBP5IJz8txjFP/J5vkeC3Mv3iCncYpceOWnXvcmczUmgJWcO9uT7pX0qZy9CsdQEIdYgDMdWYo7XPDEBc26UeqYc7RqE4cYs4DIQrB0BYQDIRHf7GUXioDj3yCpmCpY5zkQgEZieCCAPgqKAjajFgXghCALoeB4CqxK+AK1q1S5GH8/7jlfbiBtiiDiIrf1s3x5tXwYmCBYJyWplU0oswz0XQLaHORKMbEOmNV4PuBktAON9PoathCyow2m4pzzKuuKVqrJO2bNSVjfriMWCMqXp/JS/8cY+208EEoGpg4ByuwxdYmPaR8arAqAirIqo0uXz8Tpk55Iv1T9TSNPddyI7Ko8qPeP1XJ6BCcJ4CTHbTQQSgUQgEUgEEoHJR2DKEARzNfFUqYmGxeIw8z6DPOnLHNd0eSXuROM60v1UQsz3mU+LR1mbFx7LJ2G2fSBn8+jm9tyn+2hd55r77fV5dyzmIfV/ad7oqR+OQfSu2x8VKmNqHxLUC39rB/RdNa+fp1AaI9xUq3q1bSosqoHGIyvrp92RdCO/TwQSgclHYMoQBIs8LFSz6KPXDobxhMpiK4uQRvOscA7ZtIl5LYuM+j0ERIuPrCj3w6EqE1kMZnGXeSWLwjhy5MPCRVM0FuIIohb4WADTkhILoayatfDPQh+LHy2UsgBuPOal+h3rSOcJKBabWfRlEZCFhrEwcqRrR/M98mlBmQWKZAVXi9AsaIsAL7jSP8HQwsSRDjJUIjX3N8hhUZrV4mQ+Fq+O1neLt7oLG7t9o2dW2sN8qK2y7TUWiyIAdq9YS9RdCGUNkkWf5GfBGzsai/EMgmlekwgkAmOLwJQhCFZzWr1tzn2Ql/ksDSx2J8gs+3kzoJ0OsRLdKlmBx8Kbfg/B3Ipwq1ZtmUEQOHcrVc0lCZi21VnYaJ2HbS7uJ5hYk2Bbmi2PVibHYecEEmGHg7btBJAh2sY0VDYnEJoTHDTA9TveXudZqGphjaBiZ4IApL9W08eTE5em/e61yJyVxRZBxZPzQtcCHztFbHkjD2tGeh0IjHlSO1GsFEdk2wdijabPMm/bz+IxwqO5tte52lP9GGrhFRJM35AlfUeGR6o2uI9rbBljI67pLpi1ut1CWUTUIls7Y8brbapLi1FenwgkAqNDYKkIAmfDoXK2FptY+CFgyiBkvA4lSqvxORHZMCLgOiRAQJZRc9L+5uAECn/bvqP06jNZpb+15QEXro997LHQxHfO5cDiyVu2G2pbQJJZC7q28nTLwgKI6Q0O3/Yq7QvKHqLRdaKcukWWtvUIOrYT2W7iGtunolQuoAuCFo+0i2Fkqvbwut7zBhwCNZIgwMNFG4KZjMx2GngYk3MserSNz8Ienxu3TNhWLs4ZQbC/WH9sOxrqQDTgZYsTzO2K4ORhQXYIBKxtX9N/FQ1bpBAcBKU7JveDle/h68eqZcFI3wVSREAWb0sYImBrne1adIB+2JLViyDI+MlQX7okzvXw8jkZ6r8pAgHNdiaLPX1vpbRtf7ZzGSc9pBv6SSYIFnlqB0EwHjLUL/32N7ImoFsBbZx+VHvIwP0sMrU9Spv6oQ0Yw82zAbqYyb7t5nEtoub7eHeAjN2CXm3oqzEZn+kBfaQnZE4f4Cso66MqkjZs/SRH0zW2W9keZaU43VWto+vs1LXk7H9ttPakfduxbHtjV+6JyDo33l1Av/QfDvZvI77agY376EN32+/oXFSenQgkApOFwMAEgTOUxQoKyor2Vfvb3mErVe0D59A8GIZj9ZujFBg9yIVD5Ew4XEHXylKO0ANFBEJlcs8XUIr1VC1BVdB0D0HBQzhk2rYBOjhknwl2SsScq4xcm/ZTc5xIBiIjKMZ7wj2UQ+boXJlhPJFPeV6FwLXtnDiyY1++vssonWO/rACmP9rQT3vdZfDITVv2DYJgmiCez2CM8EQQYkqgJQgx5aIsbi81DD3yU+XAQzI4cfceDUGQuZvOMG4kxDSHPf0eYCKgaFuQEuDJyx5oGSJCJOD6v91XbB+79vzYY0yOZKqkHS/Jsq8eGTIdAhNPDtMeLD1EpRdBcH84u58xKo+3B6KETNI3DxYRlGwVRXhUJOxdRrRagkA/BVpkBLmVIVs97fPY/41cyZ71Ocrx9N0DY+iDv+k9fYc/vVGFEIThBE9Y2J9sjCpj7euN6YHx0HH6TK+cT9/okMBtrHTTXnl9RdI8F4Nu0kE2hSirxNBrn5Ed8udZFKpi8bRMUyIeWgNLfyMniJ6HtAjsPov3qgS+7JctxcPI6IQH8Lgv8kAv4WPs9D0IAiJBxvaZ0wH9zyMRSASmHwIDEwRD5RA4EHOZskJZhAfpcJj2ucosOFfBWClSwOSQ4olmnJ4nRAkOArUHTQgstk4KSpwPpy2DRCQ4bVmk882HcmpxcJ6ypHBqCIL2ZYCcrGkAQUF7HKy53zh8j7CoMti6aRwISbyEyudxeMCN6oLtMhylhyhpmyO0LsC4kRtBT2bG+cvw4wiCINBHFqY8jLz0SxA8R8L6BwEmHvihcjAagiCoCiYwMh4kTiCwxkGWrSoieMbT8SJQCdgCkXsHQUBu4m1pQRAEIIFR2/6Gh/EhcshkbI01fw3roQgC/AR3OkF23b3SdEnFRNvkbxz0TiWLHH3XJQi+R+yM3ZoEP9aDGKPA7HNbiBwedKS0rtqDFOgvfYAVQiBAC/yqDw56gAwYj0qPoOq3vrGRVg/gIrgiNM73wBOBFVGS6cvW6TsCo0+yexh4pCwdZnvxngNEANEmU2Ozpct0iAzetJg+mF5RGTIOxIV+Oo+s4+ErcG6PeKETXGBBT40b7nTAA4CQw5YgIFDxJj9Eha7nkQgkAtMPgTEhCErFHJBSLILAWQvAAoxMl5MQBGWqvpOpyFyVLeM9CfEmsi5BkPW41tOsBGNZtCoCp8M5jYYgKCmrMiAs/RIE923LqcMRBBmbjFUAFBjiiHcR+H+kKYZ+KgjxnnPBVkAUYEYiCBy8n5heaQmCoI/sCXqeIieQCDIOpMoeZcFTkHNop1153y9BQKoEudEQBLIndwFIQG1JYfRFe4iEKSFPUhT4TBmYCvCo4+EIAv3TrmuDICA7grKKiqBomkg1oRdBQB4E7XjDJoJAr1W2giBY6KePvQhCrEFACmTayBnCwqZiesGTCEdDEEyTWbBoagDJZW+9CAIC5x6xnoU+ddesBEEwXYSwIzJkoho4FEFAypEw1Qb6E084nX7uMXucCMxsBMadIFhoJ7CYH+UkzbnKUiIL5gytjEYQOLR4ZnlUEDgXDk9pVZZkCkFplCNr53QFYVm1uc+YYuDolWujghCv4JXRxzPFid/3CINssFtB6BIEWZ3yvGBnXIJPVBDME9uFIctUQkeMZPVKvt0KQncNApycGwFcpiwrFRxiikMQQoxklzJcaypkf4K1+yJfxibgwaNdgyAQta8CHYogmJLxaFcVGsFAmdv0DLmRlUCGlPiJYKK8HW84U0EQnMzjC+xtBSEIApLmehUX99J3ZK/XFINqDLnBNF7W1DVZU1KyZ8FVMBSwBW7na7MXQVCtEnRjDYapCnogEOqToCkzjge6xIujfKeCYAyIkscjI4XuLTAiCEiHwBgEQVWAPLsEgexUEPRVPy0kRIhNXagQmDLRH3I3XYKAq4iQcbeCoJIUz4s3zYLUKPUjfuRIBxHAqCBog756F0S8ytyUUku64RwEgVw9WlfVDEmmP0EQjENiEFMM7NJUhukY57Bd60wQkPYdGDPb9eboE4Gpj8DABEHWyOFwQvG2Qc6ZcxPU4uVCHB5HpBwtuFms5ZDlcTIco0Np1AI2mZrsT2AxPYFYxJu3BGREIvZay47MmccRr3hGIjgjjlfgl8koteqHzMx1cRiHMi2HrqohuFgJrsogOMpI221v+mV8+qa/+mJawd8eeylAxFu53EPVpM22BQlZumASrxHVP4HAugT9VfbljLWnnCxYK+vrp0xZsLT4zXSK/sn2Y1Gacaqy6FcsOlRxsGCyrWogXQgDEkMOpnFgjwwIAsaAAAjeFnbGZ+QoSMYajsARITAG+iBwInrIlkBlDYmAAX9YCoRwN0eNABhDTFMhdKYjYmFbvIqYLPVZ9Qi5aA+k0NqGmI+3HkTAF8gFWYTU+BEXmMPS36YNTC2021SND3EQ8OmEMr1pFyV5pXoE0TQZvTaFATMyQW7dgw0IlgiBaTWBmN6qHCFZ8cwAMkJoyVyljf7EG0A9TZPMTC9o3/XIIKJoTUtUg+g73VOlU/GAFRJGR+mcTF/1S5/0T9YflQ0yRWyQSOeZFiHXwN2UHYJjqgbBgJN7IIN01LQPW9dvsvM3HYk1QPD3GSJLz7Tj/uwmXsU89d1j9jARmNkIDEwQJho2jkl5OebpOVUOTJVguEOAiApCP9sYJ3pceb9EIBFIBBKBRGAqIjBtCIKMWeYuq4vMVol6uIcbmV+Vfal0qHIol+aRCCQCiUAikAgkAiMjMG0Igjl1Ad/UgUP5vJ9HuromFtVlaXNkhcgzEoFEIBFIBBIBCEwbgpDiSgQSgUQgEUgEEoGJQyAJwsRhnXdKBBKBRCARSASmDQJJEKaNqLKjiUAikAgkAonAxCGQBGHisM47JQKJQCKQCCQC0waBJAjTRlTZ0UQgEUgEEoFEYOIQSIIwcVjnnRKBRCARSAQSgWmDQBKEaSOq7GgikAgkAolAIjBxCCRBmDis806JQCKQCCQCicC0QeB/AAioQRjDb0qaAAAAAElFTkSuQmCC;" vertex="1" parent="1">
                    <mxGeometry x="940" y="50" width="520" height="186" as="geometry"/>
                </mxCell>
            </root>
        </mxGraphModel>
    </diagram>
</mxfile>